<?xml version="1.0" encoding="UTF-8" standalone="no"?>
<!-- Generator: Adobe Illustrator 16.0.0, SVG Export Plug-In . SVG Version: 6.00 Build 0)  -->

<svg
   xmlns:dc="http://purl.org/dc/elements/1.1/"
   xmlns:cc="http://creativecommons.org/ns#"
   xmlns:rdf="http://www.w3.org/1999/02/22-rdf-syntax-ns#"
   xmlns:svg="http://www.w3.org/2000/svg"
   xmlns="http://www.w3.org/2000/svg"
   xmlns:sodipodi="http://sodipodi.sourceforge.net/DTD/sodipodi-0.dtd"
   xmlns:inkscape="http://www.inkscape.org/namespaces/inkscape"
   version="1.1"
   id="Ebene_1"
   x="0px"
   y="0px"
   width="506px"
   height="506px"
   viewBox="0 0 506 506"
   enable-background="new 0 0 506 506"
   xml:space="preserve"
   inkscape:version="0.91 r13725"
   sodipodi:docname="Logo_opntec-ots-caps.svg"
   inkscape:export-filename="/home/opntec/git/opntec-artwork/logo/opntec/Logo_opntec-ots.png"
   inkscape:export-xdpi="200"
   inkscape:export-ydpi="200"><metadata
     id="metadata19"><rdf:RDF><cc:Work
         rdf:about=""><dc:format>image/svg+xml</dc:format><dc:type
           rdf:resource="http://purl.org/dc/dcmitype/StillImage" /><dc:title></dc:title></cc:Work></rdf:RDF></metadata><defs
     id="defs17" /><sodipodi:namedview
     pagecolor="#ffffff"
     bordercolor="#666666"
     borderopacity="1"
     objecttolerance="10"
     gridtolerance="10"
     guidetolerance="10"
     inkscape:pageopacity="0"
     inkscape:pageshadow="2"
     inkscape:window-width="1366"
     inkscape:window-height="742"
     id="namedview15"
     showgrid="false"
     inkscape:zoom="0.65959368"
     inkscape:cx="157.30118"
     inkscape:cy="337.98476"
     inkscape:window-x="0"
     inkscape:window-y="0"
     inkscape:window-maximized="1"
     inkscape:current-layer="Ebene_1" /><rect
     fill="#FF8700"
     width="506"
     height="506"
     id="rect3" /><g
     id="g5"
     transform="translate(9.9998133e-4,-46.128861)"><g
       id="g7"><path
         d="m 147.227,314.324 c -33.739,0 -61.188,-27.449 -61.188,-61.188 0,-33.739 27.448,-61.188 61.188,-61.188 33.738,0 61.188,27.448 61.188,61.188 0,33.739 -27.45,61.188 -61.188,61.188 z m 0,-93.02 c -17.553,0 -31.834,14.28 -31.834,31.833 0,17.554 14.281,31.834 31.834,31.834 17.553,0 31.833,-14.28 31.833,-31.834 0,-17.553 -14.28,-31.833 -31.833,-31.833 z"
         id="path9"
         inkscape:connector-curvature="0"
         style="fill:#ffffff" /></g><path
       d="m 330.421,267.65 c 0,14.579 -11.816,26.395 -26.395,26.395 -14.576,0 -26.395,-11.815 -26.395,-26.395 l 18.764,0 0,-29.027 -18.764,0 0,-20.117 c 0,-30.83 -25.083,-55.911 -55.912,-55.911 l 0,29.354 c 14.644,0 26.558,11.914 26.558,26.557 l 0,20.117 -18.727,0 0,29.027 18.727,0 c 0,30.374 24.709,55.086 55.084,55.086 30.373,0 55.082,-24.712 55.082,-55.086 l -28.022,0 z"
       id="path11"
       inkscape:connector-curvature="0"
       style="fill:#ffffff" /><path
       d="m 375.194,193.857 c -24.684,0 -44.766,20.082 -44.766,44.766 l 28.016,0 c 0,-9.4 7.621,-17.023 17.023,-17.023 9.4,0 17.023,7.623 17.023,17.023 l 27.469,0 c 10e-4,-24.684 -20.081,-44.766 -44.765,-44.766 z"
       id="path13"
       inkscape:connector-curvature="0"
       style="fill:#ffffff" /></g><g
     id="g4208"
     transform="matrix(1.5421209,0,0,1.5421209,69.613213,251.1017)"><path
       d="m 44.179088,43.338374 c -8.717852,0 -16.060056,6.003496 -18.097669,14.094845 l 9.184772,0 c 1.66526,-3.231516 5.032713,-5.450874 8.912897,-5.450874 5.526228,0 10.022571,4.496341 10.022571,10.025529 0,5.524752 -4.496343,10.021096 -10.022571,10.021096 -3.880184,0 -7.247637,-2.216403 -8.912897,-5.450874 l -9.184772,0 c 2.037613,8.092827 9.379817,14.099278 18.097669,14.099278 10.295928,0 18.665065,-8.373571 18.665065,-18.6695 0,-10.297409 -8.369137,-18.6695 -18.665065,-18.6695 z"
       id="path40-9-3"
       inkscape:connector-curvature="0"
       style="fill:#ffffff" /><text
       sodipodi:linespacing="1000%"
       id="text4141-6"
       y="79.804245"
       x="63.161266"
       style="font-style:normal;font-weight:normal;font-size:51.36038589px;line-height:1000%;font-family:sans-serif;letter-spacing:0px;word-spacing:0px;fill:#ffffff;fill-opacity:1;stroke:none;stroke-width:1px;stroke-linecap:butt;stroke-linejoin:miter;stroke-opacity:1"
       xml:space="preserve"><tspan
         style="font-style:normal;font-variant:normal;font-weight:bold;font-stretch:normal;font-family:'Fira Sans';-inkscape-font-specification:'Fira Sans Bold';fill:#ffffff"
         y="79.804245"
         x="63.161266"
         id="tspan4143-7"
         sodipodi:role="line">PNTEC</tspan></text>
</g></svg>