<?xml version="1.0" encoding="UTF-8" standalone="no"?>
<!-- Generator: Adobe Illustrator 16.0.0, SVG Export Plug-In . SVG Version: 6.00 Build 0)  -->

<svg
   xmlns:dc="http://purl.org/dc/elements/1.1/"
   xmlns:cc="http://creativecommons.org/ns#"
   xmlns:rdf="http://www.w3.org/1999/02/22-rdf-syntax-ns#"
   xmlns:svg="http://www.w3.org/2000/svg"
   xmlns="http://www.w3.org/2000/svg"
   xmlns:sodipodi="http://sodipodi.sourceforge.net/DTD/sodipodi-0.dtd"
   xmlns:inkscape="http://www.inkscape.org/namespaces/inkscape"
   version="1.1"
   id="Ebene_1"
   x="0px"
   y="0px"
   width="3.6999998cm"
   height="3.6999998cm"
   viewBox="0 0 131.10236 131.10236"
   enable-background="new 0 0 506 506"
   xml:space="preserve"
   inkscape:version="0.92.3 (2405546, 2018-03-11)"
   sodipodi:docname="Logo_opntec-ots-caps.svg"
   inkscape:export-filename="/home/opntec/git/opntec-artwork/logo/opntec/Logo_opntec-ots.png"
   inkscape:export-xdpi="200"
   inkscape:export-ydpi="200"><metadata
     id="metadata19"><rdf:RDF><cc:Work
         rdf:about=""><dc:format>image/svg+xml</dc:format><dc:type
           rdf:resource="http://purl.org/dc/dcmitype/StillImage" /><dc:title></dc:title></cc:Work></rdf:RDF></metadata><defs
     id="defs17" /><sodipodi:namedview
     pagecolor="#ffffff"
     bordercolor="#666666"
     borderopacity="1"
     objecttolerance="10"
     gridtolerance="10"
     guidetolerance="10"
     inkscape:pageopacity="0"
     inkscape:pageshadow="2"
     inkscape:window-width="1366"
     inkscape:window-height="740"
     id="namedview15"
     showgrid="false"
     inkscape:zoom="1.3191874"
     inkscape:cx="-111.33733"
     inkscape:cy="0.47305868"
     inkscape:window-x="0"
     inkscape:window-y="0"
     inkscape:window-maximized="1"
     inkscape:current-layer="Ebene_1"
     units="cm"
     fit-margin-top="0"
     fit-margin-left="0"
     fit-margin-right="0"
     fit-margin-bottom="0" /><rect
     width="131.10236"
     height="131.10236"
     id="rect3"
     x="0"
     y="-5.6843419e-14"
     style="fill:#ff8700;stroke-width:0.25909558" /><g
     id="g830"
     transform="translate(-3.7965506e-7,-7.7884508)"><g
       transform="matrix(0.2007654,0,0,0.2007654,14.757734,12.857766)"
       id="g5"><g
         id="g7"><path
           style="fill:#ffffff"
           inkscape:connector-curvature="0"
           id="path9"
           d="m 147.227,314.324 c -33.739,0 -61.188,-27.449 -61.188,-61.188 0,-33.739 27.448,-61.188 61.188,-61.188 33.738,0 61.188,27.448 61.188,61.188 0,33.739 -27.45,61.188 -61.188,61.188 z m 0,-93.02 c -17.553,0 -31.834,14.28 -31.834,31.833 0,17.554 14.281,31.834 31.834,31.834 17.553,0 31.833,-14.28 31.833,-31.834 0,-17.553 -14.28,-31.833 -31.833,-31.833 z" /></g><path
         style="fill:#ffffff"
         inkscape:connector-curvature="0"
         id="path11"
         d="m 330.421,267.65 c 0,14.579 -11.816,26.395 -26.395,26.395 -14.576,0 -26.395,-11.815 -26.395,-26.395 h 18.764 v -29.027 h -18.764 v -20.117 c 0,-30.83 -25.083,-55.911 -55.912,-55.911 v 29.354 c 14.644,0 26.558,11.914 26.558,26.557 v 20.117 H 229.55 v 29.027 h 18.727 c 0,30.374 24.709,55.086 55.084,55.086 30.373,0 55.082,-24.712 55.082,-55.086 z" /><path
         style="fill:#ffffff"
         inkscape:connector-curvature="0"
         id="path13"
         d="m 375.194,193.857 c -24.684,0 -44.766,20.082 -44.766,44.766 h 28.016 c 0,-9.4 7.621,-17.023 17.023,-17.023 9.4,0 17.023,7.623 17.023,17.023 h 27.469 c 10e-4,-24.684 -20.081,-44.766 -44.765,-44.766 z" /></g><g
       transform="matrix(0.37360782,0,0,0.37360782,21.122278,71.036346)"
       id="g4208"><path
   style="fill:#ffffff"
   inkscape:connector-curvature="0"
   id="path40-9-3"
   d="m 44.179088,43.338374 c -8.717852,0 -16.060056,6.003496 -18.097669,14.094845 h 9.184772 c 1.66526,-3.231516 5.032713,-5.450874 8.912897,-5.450874 5.526228,0 10.022571,4.496341 10.022571,10.025529 0,5.524752 -4.496343,10.021096 -10.022571,10.021096 -3.880184,0 -7.247637,-2.216403 -8.912897,-5.450874 h -9.184772 c 2.037613,8.092827 9.379817,14.099278 18.097669,14.099278 10.295928,0 18.665065,-8.373571 18.665065,-18.6695 0,-10.297409 -8.369137,-18.6695 -18.665065,-18.6695 z" /><text
   xml:space="preserve"
   style="font-style:normal;font-weight:normal;line-height:0%;font-family:sans-serif;letter-spacing:0px;word-spacing:0px;fill:#ffffff;fill-opacity:1;stroke:none;stroke-width:1px;stroke-linecap:butt;stroke-linejoin:miter;stroke-opacity:1"
   x="63.161266"
   y="79.804245"
   id="text4141-6"><tspan
     sodipodi:role="line"
     id="tspan4143-7"
     x="63.161266"
     y="79.804245"
     style="font-style:normal;font-variant:normal;font-weight:bold;font-stretch:normal;font-size:51.36038589px;line-height:10;font-family:'Fira Sans';-inkscape-font-specification:'Fira Sans Bold';fill:#ffffff">PNTEC</tspan></text>

</g></g></svg>