<?xml version="1.0" encoding="UTF-8" standalone="no"?>
<!-- Generator: Adobe Illustrator 16.0.0, SVG Export Plug-In . SVG Version: 6.00 Build 0)  -->

<svg
   xmlns:dc="http://purl.org/dc/elements/1.1/"
   xmlns:cc="http://creativecommons.org/ns#"
   xmlns:rdf="http://www.w3.org/1999/02/22-rdf-syntax-ns#"
   xmlns:svg="http://www.w3.org/2000/svg"
   xmlns="http://www.w3.org/2000/svg"
   xmlns:sodipodi="http://sodipodi.sourceforge.net/DTD/sodipodi-0.dtd"
   xmlns:inkscape="http://www.inkscape.org/namespaces/inkscape"
   version="1.1"
   id="Ebene_1"
   x="0px"
   y="0px"
   width="506px"
   height="506px"
   viewBox="0 0 506 506"
   enable-background="new 0 0 506 506"
   xml:space="preserve"
   inkscape:version="0.91 r13725"
   sodipodi:docname="Logo_opntec-ots.svg"><metadata
     id="metadata19"><rdf:RDF><cc:Work
         rdf:about=""><dc:format>image/svg+xml</dc:format><dc:type
           rdf:resource="http://purl.org/dc/dcmitype/StillImage" /><dc:title></dc:title></cc:Work></rdf:RDF></metadata><defs
     id="defs17" /><sodipodi:namedview
     pagecolor="#ffffff"
     bordercolor="#666666"
     borderopacity="1"
     objecttolerance="10"
     gridtolerance="10"
     guidetolerance="10"
     inkscape:pageopacity="0"
     inkscape:pageshadow="2"
     inkscape:window-width="1366"
     inkscape:window-height="742"
     id="namedview15"
     showgrid="false"
     inkscape:zoom="0.46640316"
     inkscape:cx="-6.4322034"
     inkscape:cy="253"
     inkscape:window-x="0"
     inkscape:window-y="0"
     inkscape:window-maximized="1"
     inkscape:current-layer="Ebene_1" /><rect
     fill="#FF8700"
     width="506"
     height="506"
     id="rect3" /><g
     id="g4179"
     transform="translate(0,-5.7429552)"><g
       transform="translate(9.9998133e-4,-40.385906)"
       id="g5"><g
         id="g7"><path
           style="fill:#ffffff"
           inkscape:connector-curvature="0"
           id="path9"
           d="m 147.227,314.324 c -33.739,0 -61.188,-27.449 -61.188,-61.188 0,-33.739 27.448,-61.188 61.188,-61.188 33.738,0 61.188,27.448 61.188,61.188 0,33.739 -27.45,61.188 -61.188,61.188 z m 0,-93.02 c -17.553,0 -31.834,14.28 -31.834,31.833 0,17.554 14.281,31.834 31.834,31.834 17.553,0 31.833,-14.28 31.833,-31.834 0,-17.553 -14.28,-31.833 -31.833,-31.833 z" /></g><path
         style="fill:#ffffff"
         inkscape:connector-curvature="0"
         id="path11"
         d="m 330.421,267.65 c 0,14.579 -11.816,26.395 -26.395,26.395 -14.576,0 -26.395,-11.815 -26.395,-26.395 l 18.764,0 0,-29.027 -18.764,0 0,-20.117 c 0,-30.83 -25.083,-55.911 -55.912,-55.911 l 0,29.354 c 14.644,0 26.558,11.914 26.558,26.557 l 0,20.117 -18.727,0 0,29.027 18.727,0 c 0,30.374 24.709,55.086 55.084,55.086 30.373,0 55.082,-24.712 55.082,-55.086 l -28.022,0 z" /><path
         style="fill:#ffffff"
         inkscape:connector-curvature="0"
         id="path13"
         d="m 375.194,193.857 c -24.684,0 -44.766,20.082 -44.766,44.766 l 28.016,0 c 0,-9.4 7.621,-17.023 17.023,-17.023 9.4,0 17.023,7.623 17.023,17.023 l 27.469,0 c 10e-4,-24.684 -20.081,-44.766 -44.765,-44.766 z" /></g><g
       style="fill:#ffffff"
       transform="matrix(2.0220753,0,0,2.0220753,33.010918,226.87252)"
       id="g4202"><path
         style="fill:#ffffff"
         inkscape:connector-curvature="0"
         id="path40-9"
         d="m 50.31022,47.979412 c -6.072359,0 -11.18652,4.181693 -12.605805,9.817666 l 6.397589,0 c 1.159925,-2.25089 3.505501,-3.796768 6.208216,-3.796768 3.849256,0 6.981153,3.131895 6.981153,6.983212 0,3.848228 -3.131897,6.980125 -6.981153,6.980125 -2.702715,0 -5.048291,-1.54382 -6.208216,-3.796768 l -6.397589,0 c 1.419285,5.637002 6.533446,9.820754 12.605805,9.820754 7.171557,0 13.001022,-5.832553 13.001022,-13.004111 0,-7.172588 -5.829465,-13.00411 -13.001022,-13.00411 z" /><text
         xml:space="preserve"
         style="font-style:normal;font-weight:normal;font-size:45.2453804px;line-height:1000%;font-family:sans-serif;letter-spacing:0px;word-spacing:0px;fill:#ffffff;fill-opacity:1;stroke:none;stroke-width:1px;stroke-linecap:butt;stroke-linejoin:miter;stroke-opacity:1"
         x="63.173969"
         y="73.238426"
         id="text4141"
         sodipodi:linespacing="1000%"><tspan
           sodipodi:role="line"
           id="tspan4143"
           x="63.173969"
           y="73.238426"
           style="font-style:normal;font-variant:normal;font-weight:bold;font-stretch:normal;font-family:'Fira Sans';-inkscape-font-specification:'Fira Sans Bold';fill:#ffffff">pntec</tspan></text>
</g></g></svg>