<?xml version="1.0" encoding="utf-8"?>
<!-- Generator: Adobe Illustrator 16.0.0, SVG Export Plug-In . SVG Version: 6.00 Build 0)  -->
<!DOCTYPE svg PUBLIC "-//W3C//DTD SVG 1.1//EN" "http://www.w3.org/Graphics/SVG/1.1/DTD/svg11.dtd">
<svg version="1.1" xmlns="http://www.w3.org/2000/svg" xmlns:xlink="http://www.w3.org/1999/xlink" x="0px" y="0px"
	 width="226.771px" height="226.771px" viewBox="0 0 226.771 226.771" enable-background="new 0 0 226.771 226.771"
	 xml:space="preserve">
<g id="bg">
	<rect y="0" fill="#FF8700" width="226.771" height="226.772"/>
</g>
<g id="logo">
	<g>
		<g>
			<g>
				<g>
					<path fill="#FFFFFF" d="M62.205,119.734c-16.324,0-29.605-13.283-29.605-29.606c0-16.327,13.281-29.609,29.605-29.609
						c16.326,0,29.607,13.282,29.607,29.609C91.813,106.451,78.531,119.734,62.205,119.734z M62.205,74.725
						c-8.493,0-15.403,6.908-15.403,15.404c0,8.49,6.91,15.403,15.403,15.403s15.403-6.913,15.403-15.403
						C77.608,81.633,70.698,74.725,62.205,74.725z"/>
				</g>
				<path fill="#FFFFFF" d="M150.847,97.148c0,7.055-5.717,12.773-12.771,12.773s-12.773-5.718-12.773-12.773h9.08V83.104h-9.08
					v-9.735c0-14.918-12.135-27.053-27.052-27.053V60.52c7.085,0,12.85,5.766,12.85,12.85v9.735h-9.062v14.044h9.062
					c0,14.698,11.956,26.656,26.652,26.656s26.653-11.958,26.653-26.656H150.847z"/>
				<path fill="#FFFFFF" d="M172.513,61.444c-11.946,0-21.663,9.716-21.663,21.66h13.557c0-4.548,3.688-8.239,8.237-8.239
					s8.238,3.69,8.238,8.239h13.292C194.174,71.16,184.456,61.444,172.513,61.444z"/>
			</g>
		</g>
		<g>
			<g>
				<path fill="#FFFFFF" d="M79.647,148.684c1.132,1.676,1.696,4.043,1.696,7.099c0,1.872-0.292,3.54-0.877,5.013
					c-0.581,1.471-1.417,2.624-2.51,3.456c-1.097,0.831-2.374,1.246-3.833,1.246c-1.823,0-3.296-0.635-4.415-1.913v8.346
					l-5.404,0.58V146.75h4.753l0.275,2.017c0.709-0.885,1.512-1.542,2.412-1.964c0.901-0.421,1.806-0.634,2.72-0.634
					C76.792,146.17,78.521,147.008,79.647,148.684z M75.732,155.853c0-2.143-0.248-3.634-0.737-4.464
					c-0.487-0.834-1.235-1.249-2.238-1.249c-0.571,0-1.121,0.185-1.659,0.562c-0.54,0.377-0.999,0.896-1.389,1.559v7.664
					c0.734,1.07,1.656,1.608,2.775,1.608C74.649,161.533,75.732,159.64,75.732,155.853z"/>
				<path fill="#FFFFFF" d="M100.468,157.427H89.245c0.163,1.526,0.581,2.601,1.269,3.216c0.684,0.615,1.625,0.926,2.838,0.926
					c0.73,0,1.435-0.136,2.117-0.395c0.688-0.263,1.427-0.669,2.229-1.217l2.219,3.014c-2.116,1.685-4.481,2.528-7.076,2.528
					c-2.945,0-5.205-0.863-6.78-2.598c-1.57-1.733-2.355-4.06-2.355-6.981c0-1.846,0.327-3.506,0.988-4.978
					c0.668-1.469,1.634-2.634,2.913-3.487c1.276-0.855,2.805-1.285,4.58-1.285c2.627,0,4.675,0.82,6.16,2.465
					c1.481,1.643,2.221,3.923,2.221,6.84C100.566,156.227,100.531,156.877,100.468,157.427z M95.265,153.935
					c-0.043-2.78-1.024-4.172-2.942-4.172c-0.934,0-1.651,0.335-2.15,1.009c-0.504,0.675-0.826,1.81-0.96,3.406h6.053V153.935z"/>
				<path fill="#FFFFFF" d="M118.018,147.608c0.889,0.958,1.332,2.305,1.332,4.038v13.273h-5.403v-12.35
					c0-0.912-0.146-1.546-0.428-1.898c-0.287-0.355-0.712-0.53-1.281-0.53c-1.097,0-2.146,0.787-3.15,2.361v12.418h-5.403V146.75
					h4.721l0.377,2.158c0.797-0.914,1.647-1.598,2.547-2.052c0.902-0.458,1.899-0.687,2.993-0.687
					C115.896,146.17,117.125,146.651,118.018,147.608z"/>
				<path fill="#FFFFFF" d="M133.346,145.52v19.399h-5.61V145.52h-6.126v-4.31h18.131l-0.548,4.31H133.346z"/>
				<path fill="#FFFFFF" d="M154.895,157.427h-11.22c0.159,1.526,0.582,2.601,1.265,3.216c0.684,0.615,1.63,0.926,2.843,0.926
					c0.728,0,1.436-0.136,2.119-0.395c0.682-0.263,1.425-0.669,2.224-1.217l2.224,3.014c-2.116,1.685-4.482,2.528-7.078,2.528
					c-2.946,0-5.2-0.863-6.779-2.598c-1.571-1.733-2.357-4.06-2.357-6.981c0-1.846,0.329-3.506,0.991-4.978
					c0.661-1.469,1.631-2.634,2.906-3.487c1.277-0.855,2.805-1.285,4.587-1.285c2.626,0,4.675,0.82,6.155,2.465
					c1.485,1.643,2.226,3.923,2.226,6.84C154.999,156.227,154.963,156.877,154.895,157.427z M149.695,153.935
					c-0.043-2.78-1.025-4.172-2.941-4.172c-0.935,0-1.652,0.335-2.156,1.009c-0.504,0.675-0.819,1.81-0.957,3.406h6.055V153.935z"/>
				<path fill="#FFFFFF" d="M169.366,146.719c1.005,0.365,1.953,0.924,2.844,1.677l-2.364,3.249
					c-1.093-0.889-2.237-1.336-3.422-1.336c-1.206,0-2.12,0.447-2.733,1.336c-0.615,0.89-0.927,2.328-0.927,4.31
					c0,1.917,0.312,3.273,0.927,4.073c0.613,0.795,1.501,1.195,2.667,1.195c0.637,0,1.208-0.102,1.714-0.306
					c0.497-0.206,1.058-0.547,1.672-1.029l2.467,3.456c-1.806,1.439-3.847,2.155-6.126,2.155c-1.848,0-3.445-0.392-4.789-1.181
					c-1.35-0.784-2.389-1.893-3.112-3.316c-0.734-1.424-1.097-3.097-1.097-5.012c0-1.915,0.362-3.615,1.097-5.096
					c0.724-1.481,1.763-2.64,3.112-3.473c1.344-0.833,2.908-1.25,4.684-1.25C167.232,146.17,168.363,146.354,169.366,146.719z"/>
				<path fill="#FFFFFF" d="M188.834,147.608c0.888,0.958,1.332,2.305,1.332,4.038v13.273h-5.405v-12.35
					c0-0.912-0.145-1.546-0.442-1.898c-0.298-0.355-0.719-0.53-1.264-0.53c-1.098,0-2.147,0.776-3.15,2.324v12.455h-5.407v-25.385
					l5.407-0.548v9.681c0.751-0.843,1.554-1.47,2.395-1.881c0.845-0.408,1.789-0.616,2.839-0.616
					C186.712,146.17,187.946,146.651,188.834,147.608z"/>
			</g>
			<path fill="#FFFFFF" d="M48.854,140.559c-5.9,0-10.869,4.063-12.248,9.539h6.216c1.127-2.187,3.406-3.689,6.032-3.689
				c3.74,0,6.783,3.043,6.783,6.785c0,3.739-3.043,6.782-6.783,6.782c-2.626,0-4.905-1.5-6.032-3.689h-6.216
				c1.379,5.477,6.348,9.542,12.248,9.542c6.968,0,12.632-5.667,12.632-12.635C61.486,146.225,55.822,140.559,48.854,140.559z"/>
			<g>
				<g>
					<path fill="#FFFFFF" d="M87.35,177.568c0,0.896-0.324,1.602-0.967,2.114c-0.646,0.517-1.544,0.773-2.688,0.773
						c-1.06,0-1.992-0.198-2.809-0.595v-1.955c0.672,0.301,1.237,0.511,1.698,0.635c0.465,0.118,0.89,0.182,1.273,0.182
						c0.461,0,0.814-0.09,1.059-0.268c0.248-0.175,0.37-0.438,0.37-0.784c0-0.193-0.054-0.369-0.16-0.516
						c-0.107-0.155-0.27-0.298-0.479-0.438c-0.21-0.144-0.641-0.365-1.287-0.672c-0.604-0.287-1.057-0.561-1.365-0.822
						c-0.298-0.262-0.538-0.567-0.722-0.914c-0.184-0.349-0.269-0.755-0.269-1.218c0-0.878,0.295-1.571,0.89-2.069
						c0.597-0.503,1.418-0.752,2.466-0.752c0.513,0,1.004,0.061,1.474,0.181c0.465,0.123,0.955,0.295,1.465,0.516l-0.677,1.632
						c-0.529-0.215-0.963-0.368-1.314-0.455c-0.341-0.083-0.682-0.128-1.014-0.128c-0.403,0-0.704,0.094-0.918,0.278
						c-0.216,0.187-0.321,0.427-0.321,0.726c0,0.184,0.048,0.346,0.133,0.487c0.085,0.136,0.217,0.271,0.409,0.395
						c0.188,0.129,0.633,0.362,1.333,0.699c0.927,0.443,1.558,0.882,1.902,1.329C87.173,176.378,87.35,176.923,87.35,177.568z"/>
					<path fill="#FFFFFF" d="M107.742,170.413v6.408c0,0.733-0.166,1.377-0.491,1.929c-0.327,0.546-0.803,0.973-1.42,1.264
						c-0.619,0.294-1.351,0.441-2.195,0.441c-1.275,0-2.263-0.327-2.966-0.977c-0.71-0.652-1.06-1.545-1.06-2.681v-6.385h2.091
						v6.064c0,0.765,0.154,1.324,0.462,1.681c0.308,0.357,0.82,0.538,1.528,0.538c0.682,0,1.182-0.181,1.494-0.542
						c0.307-0.359,0.461-0.92,0.461-1.691v-6.05H107.742z"/>
					<path fill="#FFFFFF" d="M124.895,180.318l-2.386-7.769h-0.059c0.085,1.581,0.132,2.632,0.132,3.161v4.608h-1.878v-9.906h2.855
						l2.349,7.574h0.041l2.485-7.574h2.86v9.906h-1.959v-4.687c0-0.221,0.003-0.479,0.012-0.767
						c0.006-0.288,0.036-1.059,0.092-2.304h-0.062l-2.556,7.758H124.895z"/>
					<path fill="#FFFFFF" d="M148.517,180.318l-2.383-7.769h-0.059c0.086,1.581,0.128,2.632,0.128,3.161v4.608h-1.879v-9.906h2.861
						l2.348,7.574h0.038l2.485-7.574h2.86v9.906h-1.956v-4.687c0-0.221,0-0.479,0.008-0.767c0.005-0.288,0.04-1.059,0.09-2.304H153
						l-2.554,7.758H148.517z"/>
					<path fill="#FFFFFF" d="M167.946,180.318v-9.906h2.099v9.906H167.946z"/>
					<path fill="#FFFFFF" d="M186.897,180.318h-2.103v-8.158h-2.688v-1.747h7.484v1.747h-2.693V180.318z"/>
				</g>
			</g>
		</g>
	</g>
</g>
</svg>
