<?xml version="1.0" encoding="utf-8"?>
<!-- Generator: Adobe Illustrator 16.0.0, SVG Export Plug-In . SVG Version: 6.00 Build 0)  -->
<!DOCTYPE svg PUBLIC "-//W3C//DTD SVG 1.1//EN" "http://www.w3.org/Graphics/SVG/1.1/DTD/svg11.dtd">
<svg version="1.1" xmlns="http://www.w3.org/2000/svg" xmlns:xlink="http://www.w3.org/1999/xlink" x="0px" y="0px" width="506px"
	 height="506px" viewBox="0 0 506 506" enable-background="new 0 0 506 506" xml:space="preserve">
<g id="Ebene_2">
	<rect x="0" fill="#FF8700" width="506" height="506"/>
</g>
<g id="Ebene_1">
	<g>
		<g>
			<g>
				<path fill="#FFFFFF" d="M147.227,304.324c-33.739,0-61.188-27.449-61.188-61.188c0-33.739,27.448-61.188,61.188-61.188
					c33.738,0,61.188,27.448,61.188,61.188C208.414,276.875,180.965,304.324,147.227,304.324z M147.227,211.304
					c-17.553,0-31.834,14.28-31.834,31.833c0,17.554,14.281,31.834,31.834,31.834s31.833-14.28,31.833-31.834
					C179.06,225.584,164.779,211.304,147.227,211.304z"/>
			</g>
			<path fill="#FFFFFF" d="M330.422,257.65c0,14.579-11.816,26.395-26.395,26.395s-26.396-11.815-26.396-26.395h18.764v-29.027
				h-18.764v-20.117c0-30.83-25.082-55.911-55.91-55.911v29.354c14.643,0,26.557,11.914,26.557,26.557v20.117h-18.727v29.027h18.727
				c0,30.374,24.711,55.086,55.084,55.086c30.375,0,55.084-24.712,55.084-55.086H330.422z"/>
			<path fill="#FFFFFF" d="M375.195,183.857c-24.686,0-44.766,20.082-44.766,44.766h28.016c0-9.4,7.621-17.023,17.023-17.023
				c9.4,0,17.023,7.623,17.023,17.023h27.469C419.961,203.939,399.879,183.857,375.195,183.857z"/>
		</g>
		<g>
			<path fill="#FFFFFF" d="M147.606,376.555c0,5.685-1.776,10.033-5.329,13.043c-3.554,3.012-8.606,4.518-15.158,4.518h-4.806
				v18.789h-11.201v-52.826h16.874c6.407,0,11.279,1.379,14.615,4.137S147.606,371.086,147.606,376.555z M122.313,384.938h3.686
				c3.444,0,6.022-0.681,7.732-2.042c1.71-1.36,2.565-3.343,2.565-5.944c0-2.625-0.717-4.564-2.15-5.816
				c-1.434-1.253-3.68-1.879-6.738-1.879h-5.095V384.938z"/>
			<path fill="#FFFFFF" d="M190.611,392.633v20.271h-11.202v-52.826h15.394c7.178,0,12.488,1.307,15.934,3.92
				s5.168,6.582,5.168,11.906c0,3.107-0.855,5.871-2.566,8.292s-4.131,4.317-7.262,5.69c7.949,11.877,13.127,19.549,15.537,23.018
				h-12.43l-12.611-20.271H190.611z M190.611,383.527h3.613c3.541,0,6.154-0.59,7.84-1.77c1.686-1.181,2.529-3.035,2.529-5.564
				c0-2.506-0.861-4.288-2.584-5.348c-1.723-1.061-4.389-1.59-8.002-1.59h-3.396V383.527z"/>
			<path fill="#FFFFFF" d="M280.516,412.904h-30.424v-52.826h30.424v9.178h-19.223v11.598h17.885v9.178h-17.885v13.623h19.223
				V412.904z"/>
			<path fill="#FFFFFF" d="M344.549,398.234c0,4.77-1.717,8.527-5.15,11.273c-3.432,2.746-8.207,4.119-14.326,4.119
				c-5.637,0-10.623-1.061-14.959-3.18v-10.406c3.564,1.59,6.582,2.709,9.051,3.359s4.729,0.977,6.775,0.977
				c2.457,0,4.342-0.471,5.654-1.41s1.971-2.336,1.971-4.191c0-1.035-0.289-1.957-0.867-2.764s-1.428-1.584-2.549-2.33
				c-1.119-0.747-3.402-1.939-6.846-3.578c-3.229-1.518-5.65-2.975-7.264-4.371c-1.613-1.397-2.902-3.023-3.865-4.879
				c-0.965-1.854-1.445-4.021-1.445-6.504c0-4.672,1.582-8.346,4.75-11.02s7.547-4.012,13.135-4.012
				c2.746,0,5.365,0.326,7.859,0.977c2.492,0.65,5.1,1.565,7.822,2.746l-3.613,8.707c-2.818-1.156-5.148-1.963-6.992-2.42
				c-1.842-0.458-3.654-0.688-5.438-0.688c-2.119,0-3.746,0.494-4.877,1.482c-1.133,0.987-1.699,2.275-1.699,3.865
				c0,0.988,0.229,1.85,0.688,2.584c0.457,0.734,1.186,1.445,2.186,2.132s3.365,1.921,7.1,3.704c4.938,2.36,8.322,4.727,10.154,7.1
				C343.633,391.881,344.549,394.789,344.549,398.234z"/>
			<path fill="#FFFFFF" d="M407.135,398.234c0,4.77-1.715,8.527-5.148,11.273c-3.432,2.746-8.209,4.119-14.326,4.119
				c-5.637,0-10.623-1.061-14.959-3.18v-10.406c3.564,1.59,6.582,2.709,9.051,3.359s4.727,0.977,6.775,0.977
				c2.457,0,4.342-0.471,5.654-1.41s1.969-2.336,1.969-4.191c0-1.035-0.289-1.957-0.867-2.764s-1.426-1.584-2.547-2.33
				c-1.119-0.747-3.402-1.939-6.848-3.578c-3.227-1.518-5.648-2.975-7.262-4.371c-1.615-1.397-2.902-3.023-3.867-4.879
				c-0.963-1.854-1.445-4.021-1.445-6.504c0-4.672,1.584-8.346,4.752-11.02s7.545-4.012,13.135-4.012
				c2.746,0,5.365,0.326,7.859,0.977c2.492,0.65,5.1,1.565,7.822,2.746l-3.613,8.707c-2.818-1.156-5.148-1.963-6.992-2.42
				c-1.842-0.458-3.656-0.688-5.438-0.688c-2.121,0-3.746,0.494-4.879,1.482c-1.131,0.987-1.697,2.275-1.697,3.865
				c0,0.988,0.229,1.85,0.686,2.584c0.459,0.734,1.188,1.445,2.188,2.132c0.998,0.687,3.365,1.921,7.1,3.704
				c4.938,2.36,8.322,4.727,10.152,7.1C406.221,391.881,407.135,394.789,407.135,398.234z"/>
		</g>
	</g>
</g>
</svg>
