<?xml version="1.0" encoding="utf-8"?>
<!-- Generator: Adobe Illustrator 16.0.0, SVG Export Plug-In . SVG Version: 6.00 Build 0)  -->
<!DOCTYPE svg PUBLIC "-//W3C//DTD SVG 1.1//EN" "http://www.w3.org/Graphics/SVG/1.1/DTD/svg11.dtd">
<svg version="1.1" xmlns="http://www.w3.org/2000/svg" xmlns:xlink="http://www.w3.org/1999/xlink" x="0px" y="0px" width="506px"
	 height="506px" viewBox="0 0 506 506" enable-background="new 0 0 506 506" xml:space="preserve">
<g id="Ebene_2">
	<rect x="0" y="0" fill="#FF8700" width="505.999" height="506"/>
</g>
<g id="Ebene_1">
	<g>
		<g>
			<g>
				<path fill="#FFFFFF" d="M147.227,304.324c-33.738,0-61.188-27.449-61.188-61.188c0-33.74,27.449-61.188,61.188-61.188
					c33.739,0,61.188,27.448,61.188,61.188C208.415,276.875,180.966,304.324,147.227,304.324z M147.227,211.303
					c-17.553,0-31.834,14.28-31.834,31.833c0,17.553,14.281,31.834,31.834,31.834s31.834-14.281,31.834-31.834
					C179.061,225.583,164.78,211.303,147.227,211.303z"/>
			</g>
			<path fill="#FFFFFF" d="M330.421,257.65c0,14.578-11.818,26.395-26.395,26.395c-14.578,0-26.396-11.816-26.396-26.395h18.764
				v-29.028H277.63v-20.117c0-30.83-25.081-55.911-55.909-55.911v29.354c14.642,0,26.556,11.914,26.556,26.557v20.117h-18.725
				v29.028h18.725c0,30.373,24.71,55.086,55.083,55.086s55.084-24.713,55.084-55.086H330.421z"/>
			<path fill="#FFFFFF" d="M375.192,183.857c-24.684,0-44.766,20.082-44.766,44.766h28.018c0-9.4,7.621-17.023,17.021-17.023
				c9.402,0,17.025,7.623,17.025,17.023h27.469C419.96,203.939,399.878,183.857,375.192,183.857z"/>
		</g>
		<g>
			<path fill="#FFFFFF" d="M101.184,360.078h16.44c7.491,0,12.929,1.064,16.313,3.197c3.385,2.131,5.077,5.521,5.077,10.172
				c0,3.154-0.741,5.744-2.222,7.768c-1.482,2.023-3.451,3.24-5.908,3.65v0.361c3.348,0.746,5.764,2.143,7.244,4.191
				c1.482,2.047,2.223,4.77,2.223,8.166c0,4.816-1.74,8.574-5.221,11.273c-3.481,2.697-8.209,4.047-14.183,4.047h-19.765V360.078z
				 M112.385,380.998h6.504c3.035,0,5.232-0.469,6.594-1.408s2.042-2.494,2.042-4.662c0-2.023-0.741-3.475-2.222-4.354
				c-1.482-0.879-3.824-1.318-7.028-1.318h-5.89V380.998z M112.385,389.887v13.768h7.299c3.083,0,5.359-0.59,6.829-1.771
				c1.47-1.18,2.204-2.986,2.204-5.42c0-4.383-3.132-6.576-9.395-6.576H112.385z"/>
			<path fill="#FFFFFF" d="M193.537,412.904h-30.424v-52.826h30.424v9.178h-19.223v11.598H192.2v9.178h-17.886v13.623h19.223
				V412.904z"/>
			<path fill="#FFFFFF" d="M227.968,392.633v20.271h-11.201v-52.826h15.393c7.178,0,12.488,1.307,15.934,3.92
				s5.168,6.582,5.168,11.906c0,3.107-0.855,5.871-2.566,8.291c-1.711,2.422-4.131,4.318-7.262,5.691
				c7.949,11.877,13.126,19.549,15.536,23.018h-12.429l-12.611-20.271H227.968z M227.968,383.527h3.613
				c3.542,0,6.155-0.59,7.84-1.77c1.686-1.182,2.529-3.035,2.529-5.564c0-2.506-0.861-4.289-2.584-5.348
				c-1.723-1.061-4.389-1.59-8.002-1.59h-3.396V383.527z"/>
			<path fill="#FFFFFF" d="M277.827,412.904v-52.826h11.201v43.576h21.426v9.25H277.827z"/>
			<path fill="#FFFFFF" d="M331.843,412.904v-52.826h11.201v52.826H331.843z"/>
			<path fill="#FFFFFF" d="M415.415,412.904h-14.236l-22.98-39.963h-0.326c0.459,7.057,0.688,12.092,0.688,15.104v24.859h-10.01
				v-52.826h14.129l22.943,39.564h0.254c-0.361-6.865-0.543-11.719-0.543-14.561v-25.004h10.082V412.904z"/>
		</g>
	</g>
</g>
</svg>
