<?xml version="1.0" encoding="utf-8"?>
<!-- Generator: Adobe Illustrator 16.0.0, SVG Export Plug-In . SVG Version: 6.00 Build 0)  -->
<!DOCTYPE svg PUBLIC "-//W3C//DTD SVG 1.1//EN" "http://www.w3.org/Graphics/SVG/1.1/DTD/svg11.dtd">
<svg version="1.1" id="Ebene_1" xmlns="http://www.w3.org/2000/svg" xmlns:xlink="http://www.w3.org/1999/xlink" x="0px" y="0px"
	 width="506px" height="506px" viewBox="0 0 506 506" enable-background="new 0 0 506 506" xml:space="preserve">
<g>
	<g>
		<g>
			<g>
				<path d="M147.227,304.324c-33.739,0-61.188-27.449-61.188-61.188c0-33.739,27.448-61.188,61.188-61.188
					s61.188,27.448,61.188,61.188C208.414,276.875,180.966,304.324,147.227,304.324z M147.227,211.304
					c-17.553,0-31.833,14.28-31.833,31.833c0,17.554,14.28,31.834,31.833,31.834c17.554,0,31.833-14.28,31.833-31.834
					C179.06,225.584,164.78,211.304,147.227,211.304z"/>
			</g>
			<path d="M330.422,257.65c0,14.579-11.818,26.395-26.395,26.395c-14.578,0-26.396-11.815-26.396-26.395h18.764v-29.027h-18.764
				v-20.117c0-30.83-25.081-55.911-55.911-55.911v29.354c14.645,0,26.559,11.914,26.559,26.557v20.117h-18.727v29.027h18.727
				c0,30.374,24.71,55.086,55.083,55.086s55.084-24.712,55.084-55.086H330.422z"/>
			<path d="M375.193,183.857c-24.684,0-44.766,20.082-44.766,44.766h28.018c0-9.4,7.621-17.023,17.021-17.023
				c9.402,0,17.025,7.623,17.025,17.023h27.469C419.961,203.939,399.879,183.857,375.193,183.857z"/>
		</g>
	</g>
	<g>
		<g>
			<path d="M101.184,360.078h16.44c7.491,0,12.93,1.065,16.314,3.197c3.384,2.132,5.076,5.522,5.076,10.172
				c0,3.155-0.74,5.744-2.223,7.768c-1.48,2.023-3.45,3.24-5.907,3.65v0.361c3.349,0.746,5.763,2.144,7.245,4.191
				c1.48,2.047,2.222,4.77,2.222,8.166c0,4.817-1.741,8.575-5.222,11.273c-3.48,2.697-8.208,4.047-14.182,4.047h-19.765V360.078z
				 M112.385,380.998h6.504c3.035,0,5.233-0.469,6.595-1.408c1.36-0.939,2.041-2.494,2.041-4.662c0-2.023-0.74-3.475-2.223-4.354
				c-1.48-0.879-3.824-1.318-7.027-1.318h-5.89V380.998z M112.385,389.887v13.768h7.299c3.083,0,5.359-0.59,6.829-1.771
				c1.469-1.18,2.204-2.986,2.204-5.42c0-4.383-3.132-6.576-9.395-6.576H112.385z"/>
			<path d="M193.536,412.904h-30.424v-52.826h30.424v9.178h-19.223v11.598h17.886v9.178h-17.886v13.623h19.223V412.904z"/>
			<path d="M227.968,392.633v20.271h-11.201v-52.826h15.393c7.178,0,12.49,1.307,15.935,3.92s5.167,6.582,5.167,11.906
				c0,3.107-0.855,5.871-2.565,8.292s-4.132,4.317-7.263,5.69c7.949,11.877,13.128,19.549,15.537,23.018h-12.43l-12.61-20.271
				H227.968z M227.968,383.527h3.613c3.541,0,6.154-0.59,7.841-1.77c1.687-1.181,2.529-3.035,2.529-5.564
				c0-2.506-0.861-4.288-2.583-5.348c-1.723-1.061-4.391-1.59-8.004-1.59h-3.396V383.527z"/>
			<path d="M277.828,412.904v-52.826h11.201v43.576h21.426v9.25H277.828z"/>
			<path d="M331.844,412.904v-52.826h11.201v52.826H331.844z"/>
			<path d="M415.416,412.904H401.18l-22.98-39.963h-0.326c0.459,7.058,0.688,12.092,0.688,15.104v24.859h-10.01v-52.826h14.129
				l22.943,39.564h0.254c-0.361-6.865-0.543-11.719-0.543-14.561v-25.004h10.082V412.904z"/>
		</g>
	</g>
</g>
</svg>
