<?xml version="1.0" encoding="utf-8"?>
<!-- Generator: Adobe Illustrator 16.0.0, SVG Export Plug-In . SVG Version: 6.00 Build 0)  -->
<!DOCTYPE svg PUBLIC "-//W3C//DTD SVG 1.1//EN" "http://www.w3.org/Graphics/SVG/1.1/DTD/svg11.dtd">
<svg version="1.1" id="Ebene_1" xmlns="http://www.w3.org/2000/svg" xmlns:xlink="http://www.w3.org/1999/xlink" x="0px" y="0px"
	 width="506px" height="506px" viewBox="0 0 506 506" enable-background="new 0 0 506 506" xml:space="preserve">
<rect fill="#FF8700" width="506" height="506"/>
<g>
	<g>
		<path fill="#FFFFFF" d="M147.227,314.324c-33.739,0-61.188-27.449-61.188-61.188c0-33.739,27.448-61.188,61.188-61.188
			c33.738,0,61.188,27.448,61.188,61.188C208.415,286.875,180.965,314.324,147.227,314.324z M147.227,221.304
			c-17.553,0-31.834,14.28-31.834,31.833c0,17.554,14.281,31.834,31.834,31.834s31.833-14.28,31.833-31.834
			C179.06,235.584,164.78,221.304,147.227,221.304z"/>
	</g>
	<path fill="#FFFFFF" d="M330.421,267.65c0,14.579-11.816,26.395-26.395,26.395c-14.576,0-26.395-11.815-26.395-26.395h18.764
		v-29.027h-18.764v-20.117c0-30.83-25.083-55.911-55.912-55.911v29.354c14.644,0,26.558,11.914,26.558,26.557v20.117h-18.727v29.027
		h18.727c0,30.374,24.709,55.086,55.084,55.086c30.373,0,55.082-24.712,55.082-55.086H330.421z"/>
	<path fill="#FFFFFF" d="M375.194,193.857c-24.684,0-44.766,20.082-44.766,44.766h28.016c0-9.4,7.621-17.023,17.023-17.023
		c9.4,0,17.023,7.623,17.023,17.023h27.469C419.96,213.939,399.878,193.857,375.194,193.857z"/>
</g>
</svg>
