<?xml version="1.0" encoding="utf-8"?>
<!-- Generator: Adobe Illustrator 16.0.0, SVG Export Plug-In . SVG Version: 6.00 Build 0)  -->
<!DOCTYPE svg PUBLIC "-//W3C//DTD SVG 1.1//EN" "http://www.w3.org/Graphics/SVG/1.1/DTD/svg11.dtd">
<svg version="1.1" id="Ebene_1" xmlns="http://www.w3.org/2000/svg" xmlns:xlink="http://www.w3.org/1999/xlink" x="0px" y="0px"
	 width="506px" height="506px" viewBox="0 0 506 506" enable-background="new 0 0 506 506" xml:space="preserve">
<g>
	<g>
		<path d="M147.228,314.324c-33.74,0-61.188-27.449-61.188-61.188c0-33.739,27.448-61.188,61.188-61.188
			c33.738,0,61.188,27.448,61.188,61.188C208.415,286.875,180.966,314.324,147.228,314.324z M147.228,221.303
			c-17.553,0-31.834,14.28-31.834,31.833c0,17.553,14.281,31.834,31.834,31.834s31.832-14.281,31.832-31.834
			C179.06,235.583,164.78,221.303,147.228,221.303z"/>
	</g>
	<path d="M330.422,267.65c0,14.578-11.816,26.395-26.395,26.395s-26.396-11.816-26.396-26.395h18.764v-29.028h-18.764v-20.117
		c0-30.83-25.081-55.911-55.911-55.911v29.354c14.645,0,26.559,11.914,26.559,26.557v20.117h-18.727v29.028h18.727
		c0,30.373,24.71,55.086,55.083,55.086c30.375,0,55.084-24.713,55.084-55.086H330.422z"/>
	<path d="M375.195,193.857c-24.686,0-44.766,20.082-44.766,44.766h28.016c0-9.4,7.621-17.023,17.023-17.023
		c9.4,0,17.023,7.623,17.023,17.023h27.469C419.961,213.939,399.879,193.857,375.195,193.857z"/>
</g>
</svg>
