<?xml version="1.0" encoding="UTF-8" standalone="no"?>
<!-- Created with Inkscape (http://www.inkscape.org/) -->

<svg
   xmlns:dc="http://purl.org/dc/elements/1.1/"
   xmlns:cc="http://creativecommons.org/ns#"
   xmlns:rdf="http://www.w3.org/1999/02/22-rdf-syntax-ns#"
   xmlns:svg="http://www.w3.org/2000/svg"
   xmlns="http://www.w3.org/2000/svg"
   xmlns:sodipodi="http://sodipodi.sourceforge.net/DTD/sodipodi-0.dtd"
   xmlns:inkscape="http://www.inkscape.org/namespaces/inkscape"
   width="201.44933"
   height="78.202667"
   viewBox="0 0 53.300132 20.691121"
   version="1.1"
   id="svg46988"
   inkscape:version="0.92.0 r15299"
   sodipodi:docname="grab.svg">
  <defs
     id="defs46982" />
  <sodipodi:namedview
     id="base"
     pagecolor="#ffffff"
     bordercolor="#666666"
     borderopacity="1.0"
     inkscape:pageopacity="0.0"
     inkscape:pageshadow="2"
     inkscape:zoom="4.0010112"
     inkscape:cx="100.22466"
     inkscape:cy="38.601332"
     inkscape:document-units="mm"
     inkscape:current-layer="layer1"
     showgrid="false"
     fit-margin-top="0"
     fit-margin-left="0"
     fit-margin-right="0"
     fit-margin-bottom="0"
     units="px"
     inkscape:window-width="1280"
     inkscape:window-height="744"
     inkscape:window-x="-4"
     inkscape:window-y="-4"
     inkscape:window-maximized="1" />
  <metadata
     id="metadata46985">
    <rdf:RDF>
      <cc:Work
         rdf:about="">
        <dc:format>image/svg+xml</dc:format>
        <dc:type
           rdf:resource="http://purl.org/dc/dcmitype/StillImage" />
        <dc:title></dc:title>
      </cc:Work>
    </rdf:RDF>
  </metadata>
  <g
     inkscape:label="Layer 1"
     inkscape:groupmode="layer"
     id="layer1"
     transform="translate(-61.172704,-139.11144)">
    <g
       id="g1762"
       transform="matrix(0.35277777,0,0,-0.35277777,112.41579,146.94416)">
      <path
         d="m 0,0 c -3.524,3.522 -8.148,5.462 -13.023,5.462 -3.565,0 -7.147,-1.328 -9.116,-2.639 -4.076,-2.715 -7.426,-5.662 -13.457,-13.454 v -5.601 c 5.117,6.666 9.959,11.919 13.635,14.808 2.416,1.94 5.844,3.142 8.938,3.142 7.986,0 14.736,-6.747 14.736,-14.737 v -3.371 c 0,-3.948 -1.55,-7.657 -4.375,-10.449 -2.796,-2.766 -6.479,-4.289 -10.361,-4.289 -6.563,0 -12.34,4.505 -13.91,10.657 l -2.638,-3.198 c 1.924,-6.446 8.873,-11.202 16.548,-11.202 4.875,0 9.499,1.943 13.023,5.458 3.519,3.522 5.456,8.146 5.456,13.023 v 3.371 C 5.456,-8.144 3.519,-3.518 0,0 m -80.181,1.718 c 2.543,0 4.742,-0.546 6.727,-1.67 0.933,1.166 1.875,2.113 2.577,2.814 -2.1,1.604 -5.656,2.6 -9.304,2.6 -5.199,0 -9.92,-1.875 -13.291,-5.282 -3.346,-3.376 -5.194,-8.063 -5.194,-13.199 v -21.852 h 3.743 v 21.852 c 0,8.677 6.062,14.737 14.742,14.737 m 35.57,-36.589 v 21.852 c 0,6.718 -5.263,11.982 -11.982,11.982 -3.129,0 -6.116,-1.267 -8.418,-3.566 -2.297,-2.297 -3.563,-5.289 -3.563,-8.416 v -3.371 c 0,-6.493 5.489,-11.983 11.981,-11.983 1.78,0 4.203,0.438 5.686,1.655 v 3.956 c -1.457,-1.171 -3.572,-1.868 -5.686,-1.868 -4.618,0 -8.238,3.622 -8.238,8.24 v 3.371 c 0,4.619 3.62,8.235 8.238,8.235 4.622,0 8.239,-3.616 8.239,-8.235 v -21.852 z m -100.27,24.021 v -1.209 c 0,-6.49 2.462,-12.546 6.935,-17.05 4.462,-4.494 10.443,-6.965 16.841,-6.965 5.144,0 9.699,1.164 13.544,3.451 3.17,1.89 4.575,3.8 4.696,3.975 v 20.15 h -19.149 v -3.745 h 15.406 v -15.242 l -0.015,-0.013 c -1.804,-1.807 -6.086,-4.83 -14.482,-4.83 -5.471,0 -10.536,2.085 -14.271,5.88 -3.716,3.777 -5.762,8.888 -5.762,14.389 v 1.209 c 0,5.194 2.343,10.376 6.425,14.21 4.168,3.907 9.598,6.061 15.293,6.061 5.311,0 9.011,-0.806 11.983,-2.606 v 4.201 c -3.094,1.316 -6.792,1.907 -11.983,1.907 -13.8,0 -25.461,-10.889 -25.461,-23.773 m 64.7,6.066 c 1.42,0 2.623,-0.235 3.581,-0.701 0.466,1.162 0.944,2.12 1.641,3.283 -1.018,0.728 -3.441,1.165 -5.222,1.165 -6.83,0 -11.982,-5.151 -11.982,-11.982 v -21.852 h 3.743 v 21.852 c 0,4.851 3.389,8.235 8.239,8.235 m -27.256,4.395 v 4.426 c -3.387,1.817 -7.083,2.627 -11.983,2.627 -5,0 -9.74,-1.835 -13.352,-5.159 -3.615,-3.336 -5.608,-7.724 -5.608,-12.355 v -1.209 c 0,-9.659 7.748,-17.516 17.275,-17.516 7.749,0 10.93,2.536 11.74,3.338 v 11.238 h -12.649 v -3.742 h 9.147 v -5.631 l -0.033,-0.011 c -1.177,-0.469 -3.621,-1.447 -8.205,-1.447 -3.634,0 -7.034,1.413 -9.576,3.986 -2.554,2.582 -3.956,6.059 -3.956,9.785 v 1.209 c 0,7.464 6.969,13.769 15.217,13.769 5.706,0 9.08,-0.924 11.983,-3.308 m 88.359,-7.052 c 1.689,1.685 3.9,2.657 6.055,2.657 4.618,0 8.24,-3.616 8.24,-8.235 v -3.371 c 0,-4.618 -3.622,-8.24 -8.24,-8.24 -2.236,0 -4.396,1.229 -6.088,3.45 -1.5,1.964 -2.472,4.621 -2.622,7.009 l -3.031,-3.701 c 0.595,-2.831 2.075,-5.544 4.166,-7.451 2.158,-1.964 4.848,-3.05 7.575,-3.05 6.609,0 11.981,5.376 11.981,11.983 v 3.371 c 0,3.127 -1.266,6.119 -3.563,8.416 -2.301,2.299 -5.289,3.566 -8.418,3.566 -1.978,0 -5.124,-0.709 -8.873,-4.08 l -0.013,-0.013 c -1.003,-1.004 -3.359,-3.36 -4.792,-5.04 -2.41,-2.629 -5.912,-6.598 -8.895,-10.569 v -5.845 c 3.311,4.254 5.217,6.637 8.329,10.231 2.787,3.252 6.237,7.204 8.189,8.912 m -55.994,-8.949 c 0,-4.877 1.939,-9.501 5.458,-13.023 3.522,-3.515 8.147,-5.458 13.021,-5.458 2.065,0 4.186,0.441 5.686,1.18 v 3.74 c -1.752,-0.734 -3.869,-1.177 -5.686,-1.177 -7.986,0 -14.738,6.748 -14.738,14.738 v 3.371 c 0,7.99 6.752,14.737 14.738,14.737 3.971,0 7.683,-1.52 10.452,-4.289 2.766,-2.766 4.286,-6.477 4.286,-10.448 v -21.852 h 3.743 v 22.572 c -0.233,4.769 -2.269,9.231 -5.732,12.567 -3.468,3.349 -8.001,5.194 -12.749,5.194 -4.874,0 -9.499,-1.94 -13.021,-5.462 -3.519,-3.518 -5.458,-8.144 -5.458,-13.019 z m 43.33,14.491 c 1.146,1.376 2.332,2.774 3.738,3.954 v 19.773 h -3.738 z m 6.496,5.486 v 18.241 h 3.741 V 6.154 c -1.016,-0.513 -2.436,-1.489 -3.741,-2.567"
         style="fill:#1aae48;fill-opacity:1;fill-rule:nonzero;stroke:none"
         id="path1764"
         inkscape:connector-curvature="0" />
    </g>
  </g>
</svg>
