<?xml version="1.0" encoding="utf-8"?>
<!-- Generator: Adobe Illustrator 16.0.0, SVG Export Plug-In . SVG Version: 6.00 Build 0)  -->
<!DOCTYPE svg PUBLIC "-//W3C//DTD SVG 1.1//EN" "http://www.w3.org/Graphics/SVG/1.1/DTD/svg11.dtd">
<svg version="1.1" id="Ebene_5" xmlns="http://www.w3.org/2000/svg" xmlns:xlink="http://www.w3.org/1999/xlink" x="0px" y="0px"
	 width="505px" height="260px" viewBox="0 0 505 260" enable-background="new 0 0 505 260" xml:space="preserve">
<g>
	<path fill="#FFFFFF" d="M101.804,231.316c-47.929,0-86.922-38.993-86.922-86.922s38.993-86.922,86.922-86.922
		s86.922,38.993,86.922,86.922S149.733,231.316,101.804,231.316z M101.804,99.172c-24.936,0-45.222,20.287-45.222,45.222
		c0,24.936,20.287,45.223,45.222,45.223s45.222-20.287,45.222-45.223C147.026,119.458,126.739,99.172,101.804,99.172z"/>
</g>
<path fill="#FFFFFF" d="M362.049,165.013c0,20.71-16.789,37.495-37.497,37.495c-20.709,0-37.497-16.785-37.497-37.495h26.655
	v-41.236h-26.655V95.199c0-43.796-35.631-79.427-79.427-79.427v41.7c20.803,0,37.727,16.924,37.727,37.727v28.578h-26.601v41.236
	h26.601c0,43.148,35.104,78.254,78.252,78.254c43.148,0,78.251-35.105,78.251-78.254H362.049z"/>
<path fill="#FFFFFF" d="M425.652,60.183c-35.065,0-63.593,28.528-63.593,63.593h39.8c0-13.354,10.827-24.183,24.183-24.183
	c13.355,0,24.183,10.828,24.183,24.183h39.022C489.246,88.711,460.718,60.183,425.652,60.183z"/>
</svg>
