<?xml version="1.0" encoding="utf-8"?>
<!-- Generator: Adobe Illustrator 19.1.0, SVG Export Plug-In . SVG Version: 6.00 Build 0)  -->
<svg version="1.1" id="Layer_1" xmlns="http://www.w3.org/2000/svg" xmlns:xlink="http://www.w3.org/1999/xlink" x="0px" y="0px"
	 viewBox="368 246.9 1348.1 301.1" style="enable-background:new 368 246.9 1348.1 301.1;" xml:space="preserve">
<g id="Ebene_2">
	<g>
		<path d="M1213.9,367.4c7.5,11.2,11.3,26.9,11.3,47.3c0,12.5-1.9,23.6-5.8,33.4s-9.5,17.5-16.8,23s-15.8,8.3-25.5,8.3
			c-12.2,0-22-4.3-29.4-12.8v55.6l-36,3.9V354.5h31.7l1.8,13.5c4.7-5.9,10.1-10.3,16.1-13.1c6-2.8,12-4.2,18.1-4.2
			C1194.9,350.6,1206.4,356.2,1213.9,367.4z M1187.8,415.1c0-14.3-1.6-24.2-4.9-29.8c-3.3-5.5-8.2-8.3-14.9-8.3
			c-3.8,0-7.5,1.3-11.1,3.8s-6.7,6-9.2,10.4v51.1c4.9,7.1,11,10.7,18.5,10.7C1180.6,453,1187.8,440.4,1187.8,415.1z"/>
		<path d="M1339.6,360.2c5.9,6.4,8.9,15.4,8.9,26.9v88.4h-36v-82.3c0-6.1-1-10.3-2.9-12.7c-1.9-2.4-4.8-3.5-8.6-3.5
			c-7.3,0-14.3,5.2-21,15.7v82.8h-36v-121h31.5l2.5,14.4c5.3-6.1,11-10.6,17-13.7c6-3,12.7-4.6,19.9-4.6
			C1325.6,350.6,1333.8,353.8,1339.6,360.2z"/>
		<path d="M1441.8,346.3v129.2h-37.4V346.3h-40.8v-28.8h120.8l-3.6,28.7C1480.8,346.3,1441.8,346.3,1441.8,346.3z"/>
		<path d="M1585.4,425.6h-74.8c1.1,10.2,3.9,17.3,8.4,21.4c4.5,4.1,10.9,6.2,18.9,6.2c4.9,0,9.6-0.9,14.1-2.6
			c4.6-1.7,9.5-4.4,14.8-8.1l14.8,20.1c-14.1,11.3-29.9,16.9-47.2,16.9c-19.6,0-34.7-5.8-45.1-17.3c-10.5-11.6-15.7-27.1-15.7-46.5
			c0-12.3,2.2-23.4,6.6-33.2c4.4-9.8,10.9-17.6,19.4-23.3c8.5-5.7,18.7-8.5,30.6-8.5c17.5,0,31.2,5.5,41,16.4
			c9.9,10.9,14.8,26.1,14.8,45.6C1586.1,417.6,1585.9,422,1585.4,425.6z M1550.8,402.4c-0.3-18.5-6.8-27.8-19.6-27.8
			c-6.2,0-11,2.2-14.4,6.7c-3.3,4.5-5.5,12-6.4,22.7h40.4V402.4L1550.8,402.4z"/>
		<path d="M1681.8,354.2c6.7,2.4,13,6.2,18.9,11.2l-15.7,21.7c-7.3-5.9-14.9-8.9-22.8-8.9c-8.1,0-14.1,3-18.2,8.9
			c-4.1,5.9-6.2,15.5-6.2,28.7c0,12.8,2.1,21.8,6.2,27.1c4.1,5.3,10,8,17.8,8c4.3,0,8.1-0.7,11.4-2.1c3.3-1.4,7.1-3.6,11.2-6.8
			l16.4,23c-12,9.6-25.6,14.4-40.8,14.4c-12.3,0-23-2.6-31.9-7.9c-9-5.2-15.9-12.6-20.7-22.1c-4.9-9.5-7.3-20.6-7.3-33.4
			s2.4-24.1,7.3-34c4.9-9.9,11.8-17.6,20.7-23.1c9-5.5,19.4-8.3,31.2-8.3C1667.6,350.6,1675.1,351.8,1681.8,354.2z"/>
	</g>
	<g>
		<path d="M470.1,484.3c-47.9,0-86.9-39-86.9-86.9c0-47.9,39-86.9,86.9-86.9s86.9,39,86.9,86.9C557,445.3,518.1,484.3,470.1,484.3z
			 M470.1,352.2c-24.9,0-45.2,20.3-45.2,45.2s20.3,45.2,45.2,45.2s45.2-20.3,45.2-45.2C515.4,372.5,495.1,352.2,470.1,352.2z"/>
	</g>
	<path d="M1008.7,313.2c-39.3,0-72.4,27.1-81.6,63.6h41.4c7.5-14.6,22.7-24.6,40.2-24.6c24.9,0,45.2,20.3,45.2,45.2
		s-20.3,45.2-45.2,45.2c-17.5,0-32.7-10-40.2-24.6h-41.4c9.2,36.5,42.3,63.6,81.6,63.6c46.4,0,84.2-37.8,84.2-84.2
		S1055.1,313.2,1008.7,313.2z"/>
</g>
<g id="Ebene_5">
	<path d="M730.4,418c0,20.7-16.8,37.5-37.5,37.5c-20.7,0-37.5-16.8-37.5-37.5h26.7v-41.2h-26.7v-28.6c0-43.8-35.6-79.4-79.4-79.4
		v41.7c20.8,0,37.7,16.9,37.7,37.7v28.6h-26.6V418h26.6c0,43.1,35.1,78.3,78.3,78.3c43.2,0,78.3-35.1,78.3-78.3H730.4L730.4,418z"/>
	<path d="M794,313.2c-35.1,0-63.6,28.5-63.6,63.6h39.8c0-13.4,10.8-24.2,24.2-24.2s24.2,10.8,24.2,24.2h39
		C857.6,341.7,829.1,313.2,794,313.2z"/>
</g>
</svg>
