<?xml version="1.0" encoding="utf-8"?>
<!-- Generator: Adobe Illustrator 16.0.0, SVG Export Plug-In . SVG Version: 6.00 Build 0)  -->
<!DOCTYPE svg PUBLIC "-//W3C//DTD SVG 1.1//EN" "http://www.w3.org/Graphics/SVG/1.1/DTD/svg11.dtd">
<svg version="1.1" xmlns="http://www.w3.org/2000/svg" xmlns:xlink="http://www.w3.org/1999/xlink" x="0px" y="0px" width="1910px"
	 height="520px" viewBox="0 0 1910 520" enable-background="new 0 0 1910 520" xml:space="preserve">
<g id="Ebene_2">
	<rect fill="#FF8700" width="1910" height="520"/>
</g>
<g id="Ebene_3">
	<g>
		<g>
			<path fill="#FFFFFF" d="M1002.079,205.426c7.525,11.172,11.287,26.943,11.287,47.311c0,12.465-1.938,23.599-5.814,33.401
				c-3.875,9.805-9.461,17.482-16.758,23.029c-7.297,5.546-15.81,8.321-25.536,8.321c-12.163,0-21.967-4.253-29.412-12.769v55.633
				l-36.024,3.876V192.545h31.692l1.824,13.451c4.71-5.928,10.068-10.295,16.074-13.109c6.003-2.811,12.044-4.219,18.125-4.219
				C983.042,188.668,994.556,194.254,1002.079,205.426z M975.974,253.192c0-14.286-1.636-24.204-4.902-29.754
				c-3.271-5.547-8.247-8.322-14.934-8.322c-3.801,0-7.488,1.254-11.058,3.763c-3.573,2.508-6.651,5.967-9.234,10.373v51.072
				c4.863,7.146,11.019,10.716,18.468,10.716C968.752,291.04,975.974,278.425,975.974,253.192z"/>
			<path fill="#FFFFFF" d="M1140.813,263.68h-74.783c1.063,10.186,3.877,17.329,8.436,21.433c4.561,4.104,10.865,6.156,18.924,6.156
				c4.863,0,9.576-0.873,14.137-2.622c4.561-1.745,9.498-4.446,14.82-8.095l14.82,20.064c-14.137,11.25-29.869,16.872-47.197,16.872
				c-19.607,0-34.656-5.774-45.143-17.328c-10.488-11.55-15.732-27.054-15.732-46.512c0-12.313,2.201-23.37,6.611-33.174
				c4.406-9.805,10.865-17.557,19.381-23.256c8.51-5.701,18.695-8.551,30.551-8.551c17.479,0,31.158,5.473,41.041,16.416
				c9.879,10.944,14.82,26.146,14.82,45.6C1141.499,255.7,1141.271,260.032,1140.813,263.68z M1106.159,240.424
				c-0.307-18.543-6.842-27.815-19.609-27.815c-6.234,0-11.021,2.244-14.363,6.726c-3.346,4.485-5.473,12.049-6.385,22.687h40.357
				V240.424z"/>
			<path fill="#FFFFFF" d="M1257.774,198.244c5.928,6.385,8.893,15.354,8.893,26.904v88.464h-36.023v-82.308
				c0-6.078-0.951-10.296-2.852-12.654c-1.902-2.355-4.752-3.534-8.549-3.534c-7.297,0-14.289,5.244-20.977,15.731v82.765h-36.023
				V192.545h31.463l2.51,14.363c5.318-6.078,10.979-10.638,16.984-13.68c6.004-3.039,12.654-4.561,19.951-4.561
				C1243.64,188.668,1251.847,191.86,1257.774,198.244z"/>
			<path fill="#FFFFFF" d="M1359.917,184.336v129.276h-37.391V184.336h-40.813v-28.728h120.84l-3.648,28.728H1359.917z"/>
			<path fill="#FFFFFF" d="M1503.558,263.68h-74.783c1.063,10.186,3.877,17.329,8.436,21.433c4.561,4.104,10.865,6.156,18.924,6.156
				c4.863,0,9.576-0.873,14.137-2.622c4.561-1.745,9.498-4.446,14.82-8.095l14.82,20.064c-14.137,11.25-29.869,16.872-47.197,16.872
				c-19.607,0-34.656-5.774-45.143-17.328c-10.488-11.55-15.732-27.054-15.732-46.512c0-12.313,2.201-23.37,6.611-33.174
				c4.406-9.805,10.865-17.557,19.381-23.256c8.51-5.701,18.695-8.551,30.551-8.551c17.479,0,31.158,5.473,41.041,16.416
				c9.879,10.944,14.82,26.146,14.82,45.6C1504.243,255.7,1504.015,260.032,1503.558,263.68z M1468.903,240.424
				c-0.307-18.543-6.842-27.815-19.609-27.815c-6.234,0-11.021,2.244-14.363,6.726c-3.346,4.485-5.473,12.049-6.385,22.687h40.357
				V240.424z"/>
			<path fill="#FFFFFF" d="M1599.999,192.316c6.688,2.434,12.996,6.156,18.924,11.172l-15.732,21.66
				c-7.295-5.928-14.898-8.893-22.799-8.893c-8.059,0-14.137,2.965-18.24,8.893s-6.156,15.504-6.156,28.729
				c0,12.768,2.053,21.813,6.156,27.132c4.104,5.322,10.031,7.979,17.783,7.979c4.254,0,8.055-0.685,11.4-2.052
				c3.342-1.368,7.068-3.648,11.172-6.84l16.416,23.027c-12.01,9.576-25.613,14.364-40.813,14.364
				c-12.311,0-22.953-2.622-31.92-7.866c-8.971-5.244-15.885-12.615-20.748-22.115c-4.865-9.498-7.295-20.635-7.295-33.402
				c0-12.769,2.43-24.09,7.295-33.972c4.863-9.879,11.777-17.592,20.748-23.143c8.967-5.547,19.381-8.322,31.236-8.322
				C1585.784,188.668,1593.31,189.887,1599.999,192.316z"/>
			<path fill="#FFFFFF" d="M1729.728,198.244c5.928,6.385,8.893,15.354,8.893,26.904v88.464h-36.023v-82.308
				c0-6.078-0.99-10.296-2.965-12.654c-1.977-2.355-4.787-3.534-8.436-3.534c-7.297,0-14.289,5.169-20.977,15.504v82.992h-36.023
				V144.437l36.023-3.648v64.524c5.016-5.621,10.336-9.805,15.961-12.54c5.621-2.736,11.93-4.104,18.924-4.104
				C1715.593,188.668,1723.8,191.86,1729.728,198.244z"/>
		</g>
		<g>
			<path fill="#FFFFFF" d="M258.303,322.387c-47.929,0-86.922-38.993-86.922-86.922c0-47.93,38.993-86.923,86.922-86.923
				s86.922,38.993,86.922,86.923C345.225,283.394,306.232,322.387,258.303,322.387z M258.303,190.242
				c-24.936,0-45.222,20.287-45.222,45.223s20.287,45.223,45.222,45.223s45.222-20.287,45.222-45.223
				S283.238,190.242,258.303,190.242z"/>
		</g>
		<path fill="#FFFFFF" d="M796.85,151.263c-39.317,0-72.418,27.091-81.639,63.584h41.434c7.508-14.581,22.706-24.584,40.205-24.584
			c24.924,0,45.202,20.278,45.202,45.202s-20.278,45.202-45.202,45.202c-17.499,0-32.697-10.003-40.205-24.584h-41.434
			c9.221,36.493,42.322,63.584,81.639,63.584c46.429,0,84.202-37.772,84.202-84.202S843.279,151.263,796.85,151.263z"/>
		<g>
			<g>
				<path fill="#FFFFFF" d="M1053.38,397.917c0,5.963-2.146,10.66-6.438,14.092c-4.291,3.434-10.26,5.149-17.908,5.149
					c-7.045,0-13.277-1.324-18.697-3.975v-13.008c4.455,1.987,8.227,3.388,11.313,4.2c3.086,0.813,5.91,1.22,8.469,1.22
					c3.072,0,5.428-0.587,7.068-1.762c1.641-1.174,2.463-2.92,2.463-5.239c0-1.294-0.361-2.445-1.084-3.455
					c-0.723-1.009-1.785-1.979-3.186-2.913c-1.4-0.933-4.252-2.424-8.559-4.472c-4.035-1.896-7.061-3.718-9.078-5.465
					c-2.018-1.746-3.629-3.778-4.832-6.098c-1.205-2.318-1.807-5.028-1.807-8.13c0-5.841,1.979-10.433,5.939-13.775
					c3.959-3.343,9.432-5.014,16.418-5.014c3.432,0,6.707,0.407,9.822,1.22c3.117,0.813,6.375,1.958,9.779,3.433l-4.518,10.885
					c-3.521-1.445-6.436-2.453-8.738-3.026c-2.305-0.571-4.57-0.857-6.799-0.857c-2.65,0-4.682,0.617-6.098,1.852
					c-1.414,1.235-2.121,2.846-2.121,4.833c0,1.234,0.285,2.311,0.857,3.229s1.482,1.807,2.732,2.664
					c1.248,0.858,4.207,2.402,8.875,4.63c6.172,2.951,10.402,5.91,12.691,8.875C1052.235,389.976,1053.38,393.612,1053.38,397.917z"
					/>
				<path fill="#FFFFFF" d="M1189.304,350.222v42.728c0,4.878-1.092,9.154-3.275,12.827c-2.184,3.674-5.338,6.489-9.463,8.446
					s-9.004,2.936-14.633,2.936c-8.492,0-15.086-2.175-19.783-6.526c-4.697-4.351-7.045-10.305-7.045-17.863v-42.547h13.955v40.424
					c0,5.089,1.023,8.823,3.072,11.201c2.047,2.379,5.434,3.568,10.162,3.568c4.576,0,7.896-1.197,9.959-3.591
					s3.094-6.149,3.094-11.269v-40.334H1189.304z"/>
				<path fill="#FFFFFF" d="M1303.638,416.255l-15.898-51.806h-0.406c0.572,10.539,0.857,17.569,0.857,21.093v30.713h-12.51v-66.033
					h19.061l15.627,50.496h0.271l16.574-50.496h19.061v66.033h-13.053V385c0-1.475,0.023-3.177,0.068-5.104
					s0.248-7.046,0.609-15.356h-0.406l-17.027,51.715H1303.638z"/>
				<path fill="#FFFFFF" d="M1461.062,416.255l-15.898-51.806h-0.406c0.57,10.539,0.857,17.569,0.857,21.093v30.713h-12.512v-66.033
					h19.061l15.627,50.496h0.271l16.576-50.496h19.061v66.033h-13.053V385c0-1.475,0.021-3.177,0.066-5.104
					s0.248-7.046,0.609-15.356h-0.406l-17.027,51.715H1461.062z"/>
				<path fill="#FFFFFF" d="M1590.526,416.255v-66.033h14.002v66.033H1590.526z"/>
				<path fill="#FFFFFF" d="M1716.829,416.255h-14v-54.38h-17.932v-11.653h49.863v11.653h-17.932V416.255z"/>
			</g>
		</g>
		<path fill="#FFFFFF" d="M518.548,256.083c0,20.71-16.789,37.495-37.497,37.495c-20.709,0-37.497-16.785-37.497-37.495h26.655
			v-41.236h-26.655V186.27c0-43.797-35.631-79.428-79.427-79.428v41.7c20.803,0,37.727,16.925,37.727,37.728v28.577h-26.601v41.236
			h26.601c0,43.148,35.104,78.254,78.252,78.254c43.148,0,78.251-35.105,78.251-78.254H518.548z"/>
		<path fill="#FFFFFF" d="M582.151,151.254c-35.065,0-63.593,28.527-63.593,63.593h39.8c0-13.354,10.827-24.183,24.183-24.183
			c13.355,0,24.183,10.828,24.183,24.183h39.022C645.745,179.781,617.217,151.254,582.151,151.254z"/>
	</g>
</g>
</svg>
