<?xml version="1.0" encoding="utf-8"?>
<!-- Generator: Adobe Illustrator 19.1.0, SVG Export Plug-In . SVG Version: 6.00 Build 0)  -->
<svg version="1.1" id="Layer_1" xmlns="http://www.w3.org/2000/svg" xmlns:xlink="http://www.w3.org/1999/xlink" x="0px" y="0px"
	 viewBox="494 222 1600 350" style="enable-background:new 494 222 1600 350;" xml:space="preserve">
<style type="text/css">
	.st0{fill:#FFFFFF;}
</style>
<g id="Ebene_2">
</g>
<g id="Ebene_5">
	<g>
		<g>
			<path class="st0" d="M1339.7,341.9c7.5,11.2,11.3,26.9,11.3,47.3c0,12.5-1.9,23.6-5.8,33.4c-3.9,9.8-9.5,17.5-16.8,23
				c-7.3,5.5-15.8,8.3-25.5,8.3c-12.2,0-22-4.3-29.4-12.8v55.6l-36,3.9V329h31.7l1.8,13.5c4.7-5.9,10.1-10.3,16.1-13.1
				c6-2.8,12-4.2,18.1-4.2C1320.7,325.1,1332.2,330.7,1339.7,341.9z M1313.6,389.6c0-14.3-1.6-24.2-4.9-29.8
				c-3.3-5.5-8.2-8.3-14.9-8.3c-3.8,0-7.5,1.3-11.1,3.8c-3.6,2.5-6.7,6-9.2,10.4v51.1c4.9,7.1,11,10.7,18.5,10.7
				C1306.4,427.5,1313.6,414.9,1313.6,389.6z"/>
			<path class="st0" d="M1478.5,400.1h-74.8c1.1,10.2,3.9,17.3,8.4,21.4s10.9,6.2,18.9,6.2c4.9,0,9.6-0.9,14.1-2.6
				c4.6-1.7,9.5-4.4,14.8-8.1l14.8,20.1c-14.1,11.3-29.9,16.9-47.2,16.9c-19.6,0-34.7-5.8-45.1-17.3c-10.5-11.6-15.7-27.1-15.7-46.5
				c0-12.3,2.2-23.4,6.6-33.2c4.4-9.8,10.9-17.6,19.4-23.3c8.5-5.7,18.7-8.5,30.6-8.5c17.5,0,31.2,5.5,41,16.4
				c9.9,10.9,14.8,26.1,14.8,45.6C1479.1,392.1,1478.9,396.5,1478.5,400.1z M1443.8,376.9c-0.3-18.5-6.8-27.8-19.6-27.8
				c-6.2,0-11,2.2-14.4,6.7c-3.3,4.5-5.5,12-6.4,22.7h40.4L1443.8,376.9L1443.8,376.9z"/>
			<path class="st0" d="M1595.4,334.7c5.9,6.4,8.9,15.4,8.9,26.9V450h-36v-82.3c0-6.1-1-10.3-2.9-12.7c-1.9-2.4-4.8-3.5-8.6-3.5
				c-7.3,0-14.3,5.2-21,15.7V450h-36V329h31.5l2.5,14.4c5.3-6.1,11-10.6,17-13.7c6-3,12.7-4.6,19.9-4.6
				C1581.3,325.1,1589.5,328.3,1595.4,334.7z"/>
			<path class="st0" d="M1697.6,320.8V450h-37.4V320.8h-40.8V292h120.8l-3.6,28.7C1736.5,320.8,1697.6,320.8,1697.6,320.8z"/>
			<path class="st0" d="M1841.2,400.1h-74.8c1.1,10.2,3.9,17.3,8.4,21.4s10.9,6.2,18.9,6.2c4.9,0,9.6-0.9,14.1-2.6
				c4.6-1.7,9.5-4.4,14.8-8.1l14.8,20.1c-14.1,11.3-29.9,16.9-47.2,16.9c-19.6,0-34.7-5.8-45.1-17.3c-10.5-11.6-15.7-27.1-15.7-46.5
				c0-12.3,2.2-23.4,6.6-33.2c4.4-9.8,10.9-17.6,19.4-23.3c8.5-5.7,18.7-8.5,30.6-8.5c17.5,0,31.2,5.5,41,16.4
				c9.9,10.9,14.8,26.1,14.8,45.6C1841.9,392.1,1841.7,396.5,1841.2,400.1z M1806.5,376.9c-0.3-18.5-6.8-27.8-19.6-27.8
				c-6.2,0-11,2.2-14.4,6.7c-3.3,4.5-5.5,12-6.4,22.7h40.4L1806.5,376.9L1806.5,376.9z"/>
			<path class="st0" d="M1937.6,328.7c6.7,2.4,13,6.2,18.9,11.2l-15.7,21.7c-7.3-5.9-14.9-8.9-22.8-8.9c-8.1,0-14.1,3-18.2,8.9
				s-6.2,15.5-6.2,28.7c0,12.8,2.1,21.8,6.2,27.1c4.1,5.3,10,8,17.8,8c4.3,0,8.1-0.7,11.4-2.1c3.3-1.4,7.1-3.6,11.2-6.8l16.4,23
				c-12,9.6-25.6,14.4-40.8,14.4c-12.3,0-23-2.6-31.9-7.9c-9-5.2-15.9-12.6-20.7-22.1c-4.9-9.5-7.3-20.6-7.3-33.4
				c0-12.8,2.4-24.1,7.3-34c4.9-9.9,11.8-17.6,20.7-23.1c9-5.5,19.4-8.3,31.2-8.3C1923.4,325.1,1930.9,326.3,1937.6,328.7z"/>
			<path class="st0" d="M2067.4,334.7c5.9,6.4,8.9,15.4,8.9,26.9V450h-36v-82.3c0-6.1-1-10.3-3-12.7c-2-2.4-4.8-3.5-8.4-3.5
				c-7.3,0-14.3,5.2-21,15.5v83h-36V280.9l36-3.6v64.5c5-5.6,10.3-9.8,16-12.5c5.6-2.7,11.9-4.1,18.9-4.1
				C2053.2,325.1,2061.4,328.3,2067.4,334.7z"/>
		</g>
		<g>
			<path class="st0" d="M595.9,458.8c-47.9,0-86.9-39-86.9-86.9s39-86.9,86.9-86.9c47.9,0,86.9,39,86.9,86.9
				S643.9,458.8,595.9,458.8z M595.9,326.7c-24.9,0-45.2,20.3-45.2,45.2c0,24.9,20.3,45.2,45.2,45.2s45.2-20.3,45.2-45.2
				C641.2,347,620.9,326.7,595.9,326.7z"/>
		</g>
		<path class="st0" d="M1134.5,287.7c-39.3,0-72.4,27.1-81.6,63.6h41.4c7.5-14.6,22.7-24.6,40.2-24.6c24.9,0,45.2,20.3,45.2,45.2
			c0,24.9-20.3,45.2-45.2,45.2c-17.5,0-32.7-10-40.2-24.6h-41.4c9.2,36.5,42.3,63.6,81.6,63.6c46.4,0,84.2-37.8,84.2-84.2
			C1218.7,325.5,1180.9,287.7,1134.5,287.7z"/>
		<g>
			<g>
				<path class="st0" d="M1391,534.3c0,6-2.1,10.7-6.4,14.1c-4.3,3.4-10.3,5.1-17.9,5.1c-7,0-13.3-1.3-18.7-4v-13
					c4.5,2,8.2,3.4,11.3,4.2c3.1,0.8,5.9,1.2,8.5,1.2c3.1,0,5.4-0.6,7.1-1.8c1.6-1.2,2.5-2.9,2.5-5.2c0-1.3-0.4-2.4-1.1-3.5
					c-0.7-1-1.8-2-3.2-2.9c-1.4-0.9-4.3-2.4-8.6-4.5c-4-1.9-7.1-3.7-9.1-5.5c-2-1.7-3.6-3.8-4.8-6.1c-1.2-2.3-1.8-5-1.8-8.1
					c0-5.8,2-10.4,5.9-13.8c4-3.3,9.4-5,16.4-5c3.4,0,6.7,0.4,9.8,1.2s6.4,2,9.8,3.4l-4.5,10.9c-3.5-1.4-6.4-2.5-8.7-3
					c-2.3-0.6-4.6-0.9-6.8-0.9c-2.7,0-4.7,0.6-6.1,1.9c-1.4,1.2-2.1,2.8-2.1,4.8c0,1.2,0.3,2.3,0.9,3.2s1.5,1.8,2.7,2.7
					c1.2,0.9,4.2,2.4,8.9,4.6c6.2,3,10.4,5.9,12.7,8.9C1389.9,526.4,1391,530,1391,534.3z"/>
				<path class="st0" d="M1526.9,486.7v42.7c0,4.9-1.1,9.2-3.3,12.8c-2.2,3.7-5.3,6.5-9.5,8.4c-4.1,2-9,2.9-14.6,2.9
					c-8.5,0-15.1-2.2-19.8-6.5s-7-10.3-7-17.9v-42.5h14v40.4c0,5.1,1,8.8,3.1,11.2c2,2.4,5.4,3.6,10.2,3.6c4.6,0,7.9-1.2,10-3.6
					c2.1-2.4,3.1-6.1,3.1-11.3v-40.3H1526.9z"/>
				<path class="st0" d="M1641.3,552.7l-15.9-51.8h-0.4c0.6,10.5,0.9,17.6,0.9,21.1v30.7h-12.5v-66h19.1l15.6,50.5h0.3l16.6-50.5
					h19.1v66h-13.1v-31.3c0-1.5,0-3.2,0.1-5.1s0.2-7,0.6-15.4h-0.4l-17,51.7H1641.3z"/>
				<path class="st0" d="M1798.7,552.7l-15.9-51.8h-0.4c0.6,10.5,0.9,17.6,0.9,21.1v30.7h-12.5v-66h19.1l15.6,50.5h0.3l16.6-50.5
					h19.1v66h-13.1v-31.3c0-1.5,0-3.2,0.1-5.1s0.2-7,0.6-15.4h-0.4l-17,51.7H1798.7z"/>
				<path class="st0" d="M1928.2,552.7v-66h14v66H1928.2z"/>
				<path class="st0" d="M2054.5,552.7h-14v-54.4h-17.9v-11.7h49.9v11.7h-17.9L2054.5,552.7L2054.5,552.7z"/>
			</g>
		</g>
		<path class="st0" d="M856.2,392.5c0,20.7-16.8,37.5-37.5,37.5c-20.7,0-37.5-16.8-37.5-37.5h26.7v-41.2h-26.7v-28.6
			c0-43.8-35.6-79.4-79.4-79.4V285c20.8,0,37.7,16.9,37.7,37.7v28.6h-26.6v41.2h26.6c0,43.1,35.1,78.3,78.3,78.3
			s78.3-35.1,78.3-78.3H856.2z"/>
		<path class="st0" d="M919.8,287.7c-35.1,0-63.6,28.5-63.6,63.6H896c0-13.4,10.8-24.2,24.2-24.2c13.4,0,24.2,10.8,24.2,24.2h39
			C983.4,316.2,954.9,287.7,919.8,287.7z"/>
	</g>
</g>
</svg>
