<?xml version="1.0" encoding="UTF-8" standalone="no"?>
<!-- Created with Inkscape (http://www.inkscape.org/) -->

<svg
   xmlns:dc="http://purl.org/dc/elements/1.1/"
   xmlns:cc="http://creativecommons.org/ns#"
   xmlns:rdf="http://www.w3.org/1999/02/22-rdf-syntax-ns#"
   xmlns:svg="http://www.w3.org/2000/svg"
   xmlns="http://www.w3.org/2000/svg"
   xmlns:sodipodi="http://sodipodi.sourceforge.net/DTD/sodipodi-0.dtd"
   xmlns:inkscape="http://www.inkscape.org/namespaces/inkscape"
   id="svg2"
   version="1.1"
   inkscape:version="0.91 r13725"
   xml:space="preserve"
   width="841mm"
   height="594mm"
   viewBox="0 0 2979.9212 2104.7244"
   sodipodi:docname="OTS17-Poster.svg"
   inkscape:export-filename="/home/makergirl/git/opntec-artwork/ots16/poster/OTS16-Poster.png"
   inkscape:export-xdpi="300"
   inkscape:export-ydpi="300"><metadata
     id="metadata8"><rdf:RDF><cc:Work
         rdf:about=""><dc:format>image/svg+xml</dc:format><dc:type
           rdf:resource="http://purl.org/dc/dcmitype/StillImage" /><dc:title /></cc:Work></rdf:RDF></metadata><defs
     id="defs6"><clipPath
       clipPathUnits="userSpaceOnUse"
       id="clipPath20"><path
         d="m 0,1700.787 2398.11,0 L 2398.11,0 0,0 0,1700.787 Z"
         id="path22"
         inkscape:connector-curvature="0" /></clipPath></defs><sodipodi:namedview
     pagecolor="#ffffff"
     bordercolor="#666666"
     borderopacity="1"
     objecttolerance="10"
     gridtolerance="10"
     guidetolerance="10"
     inkscape:pageopacity="0"
     inkscape:pageshadow="2"
     inkscape:window-width="1366"
     inkscape:window-height="715"
     id="namedview4"
     showgrid="false"
     inkscape:zoom="0.125"
     inkscape:cx="1485.4754"
     inkscape:cy="1654.2905"
     inkscape:window-x="0"
     inkscape:window-y="0"
     inkscape:window-maximized="1"
     inkscape:current-layer="g4387"
     units="mm" /><g
     id="g10"
     inkscape:groupmode="layer"
     inkscape:label="OpenTechSummit_PlakatA1_hellgrau_ISO_Coated_v2_300"
     transform="matrix(1.25,0,0,-1.25,0,2104.7244)"><path
       d="m 2340.542,576.87395 -2282.975,0 0,1066.34605 2282.975,0 0,-1066.34605 z"
       style="fill:#f0841e;fill-opacity:1;fill-rule:nonzero;stroke:none"
       id="path12"
       inkscape:connector-curvature="0" /><path
       d="m 2340.542,58.472064 -2282.975,0 0,538.285666 2282.975,0 0,-538.285666 z"
       style="fill:#575757;fill-opacity:1;fill-rule:nonzero;stroke:none"
       id="path14"
       inkscape:connector-curvature="0" /><g
       id="g4352"
       transform="matrix(1.0829154,0,0,1.0829154,-99.421004,-153.58318)"><g
         transform="translate(1222.9067,1156.207)"
         id="g24"><path
           inkscape:connector-curvature="0"
           id="path26"
           style="fill:#ffffff;fill-opacity:1;fill-rule:nonzero;stroke:none"
           d="m 0,0 c 0,16.242 -1.853,27.522 -5.577,33.842 -3.716,6.28 -9.373,9.475 -16.985,9.475 -4.321,0 -8.514,-1.449 -12.569,-4.309 -4.07,-2.856 -7.566,-6.766 -10.508,-11.786 l 0,-58.081 c 5.535,-8.125 12.533,-12.177 21.002,-12.177 C -8.208,-43.036 0,-28.688 0,0 m 29.686,54.317 c 8.56,-12.689 12.836,-30.649 12.836,-53.801 0,-14.168 -2.209,-26.829 -6.613,-37.993 -4.407,-11.124 -10.755,-19.876 -19.058,-26.165 -8.298,-6.316 -17.975,-9.505 -29.035,-9.505 -13.836,0 -24.976,4.872 -33.455,14.559 l 0,-63.286 -40.965,-4.39 0,195.235 36.045,0 2.068,-15.314 c 5.359,6.736 11.451,11.73 18.285,14.918 6.825,3.193 13.694,4.814 20.615,4.814 17.632,0 30.725,-6.378 39.277,-19.072" /></g><g
         transform="translate(1370.9526,1170.7334)"
         id="g28"><path
           inkscape:connector-curvature="0"
           id="path30"
           style="fill:#ffffff;fill-opacity:1;fill-rule:nonzero;stroke:none"
           d="m 0,0 c -0.347,21.082 -7.772,31.607 -22.293,31.607 -7.094,0 -12.528,-2.521 -16.332,-7.63 -3.816,-5.116 -6.229,-13.722 -7.268,-25.808 L 0,-1.831 0,0 Z m 39.419,-26.435 -85.048,0 c 1.198,-11.614 4.404,-19.732 9.593,-24.393 5.183,-4.663 12.353,-7.007 21.515,-7.007 5.538,0 10.89,0.995 16.084,3.007 5.183,1.957 10.797,5.051 16.855,9.206 L 35.27,-68.482 C 19.193,-81.238 1.293,-87.674 -18.407,-87.674 c -22.298,0 -39.409,6.618 -51.338,19.731 -11.929,13.115 -17.889,30.768 -17.889,52.911 0,13.982 2.503,26.551 7.522,37.712 5.008,11.156 12.349,19.972 22.036,26.439 9.676,6.497 21.257,9.743 34.745,9.743 19.874,0 35.432,-6.255 46.668,-18.675 11.236,-12.453 16.856,-29.751 16.856,-51.857 0,-5.712 -0.262,-10.644 -0.774,-14.765" /></g><g
         transform="translate(1543.3853,1218.71)"
         id="g32"><path
           inkscape:connector-curvature="0"
           id="path34"
           style="fill:#ffffff;fill-opacity:1;fill-rule:nonzero;stroke:none"
           d="m 0,0 c 6.736,-7.277 10.108,-17.477 10.108,-30.621 l 0,-100.605 -40.967,0 0,93.627 c 0,6.919 -1.084,11.701 -3.252,14.38 -2.152,2.644 -5.398,4.033 -9.723,4.033 -8.294,0 -16.244,-5.993 -23.852,-17.929 l 0,-94.111 -40.957,0 0,137.694 35.772,0 2.855,-16.335 c 6.051,6.919 12.485,12.091 19.322,15.548 6.829,3.461 14.387,5.205 22.683,5.205 C -16.082,10.886 -6.749,7.243 0,0" /></g><g
         transform="translate(1659.5415,1234.5254)"
         id="g36"><path
           inkscape:connector-curvature="0"
           id="path38"
           style="fill:#ffffff;fill-opacity:1;fill-rule:nonzero;stroke:none"
           d="m 0,0 0,-147.041 -42.529,0 0,147.041 -46.411,0 0,32.665 137.432,0 L 44.336,0 0,0 Z" /></g><g
         transform="translate(1783.4761,1170.7334)"
         id="g40"><path
           inkscape:connector-curvature="0"
           id="path42"
           style="fill:#ffffff;fill-opacity:1;fill-rule:nonzero;stroke:none"
           d="m 0,0 c -0.352,21.082 -7.771,31.607 -22.298,31.607 -7.096,0 -12.533,-2.521 -16.332,-7.63 -3.804,-5.116 -6.223,-13.722 -7.261,-25.808 L 0,-1.831 0,0 Z m 39.422,-26.435 -85.056,0 c 1.209,-11.614 4.41,-19.732 9.596,-24.393 5.186,-4.663 12.356,-7.007 21.519,-7.007 5.531,0 10.896,0.995 16.079,3.007 5.189,1.957 10.796,5.051 16.854,9.206 l 16.854,-22.86 C 19.188,-81.238 1.3,-87.674 -18.412,-87.674 c -22.293,0 -39.405,6.618 -51.33,19.731 -11.93,13.115 -17.893,30.768 -17.893,52.911 0,13.982 2.498,26.551 7.518,37.712 5.013,11.156 12.356,19.972 22.043,26.439 9.674,6.497 21.255,9.743 34.739,9.743 19.883,0 35.437,-6.255 46.678,-18.675 11.237,-12.453 16.845,-29.751 16.845,-51.857 0,-5.712 -0.255,-10.644 -0.766,-14.765" /></g><g
         transform="translate(1932.5679,1225.4434)"
         id="g44"><path
           inkscape:connector-curvature="0"
           id="path46"
           style="fill:#ffffff;fill-opacity:1;fill-rule:nonzero;stroke:none"
           d="M 0,0 C 7.608,-2.769 14.782,-7.006 21.522,-12.691 L 3.623,-37.354 c -8.284,6.743 -16.935,10.106 -25.917,10.106 -9.17,0 -16.082,-3.363 -20.743,-10.106 -4.674,-6.735 -7.01,-17.625 -7.01,-32.664 0,-14.526 2.336,-24.779 7.01,-30.859 4.661,-6.043 11.403,-9.078 20.219,-9.078 4.84,0 9.162,0.781 12.964,2.344 3.803,1.561 8.042,4.148 12.706,7.758 l 18.67,-26.166 c -13.656,-10.889 -29.123,-16.365 -46.416,-16.365 -13.999,0 -26.102,3.01 -36.3,8.965 -10.2,5.953 -18.069,14.348 -23.598,25.143 -5.532,10.831 -8.295,23.463 -8.295,38.014 0,14.502 2.763,27.37 8.295,38.619 5.529,11.255 13.398,19.975 23.598,26.321 10.198,6.286 22.044,9.474 35.526,9.474 C -16.167,4.152 -7.601,2.77 0,0" /></g><g
         transform="translate(2080.0942,1218.71)"
         id="g48"><path
           inkscape:connector-curvature="0"
           id="path50"
           style="fill:#ffffff;fill-opacity:1;fill-rule:nonzero;stroke:none"
           d="m 0,0 c 6.742,-7.277 10.122,-17.477 10.122,-30.621 l 0,-100.605 -40.974,0 0,93.627 c 0,6.919 -1.122,11.701 -3.368,14.38 -2.255,2.644 -5.442,4.033 -9.59,4.033 -8.303,0 -16.251,-5.903 -23.856,-17.631 l 0,-94.409 -40.975,0 0,192.398 40.975,4.151 0,-73.387 c 5.693,6.406 11.755,11.158 18.145,14.256 6.397,3.132 13.57,4.694 21.524,4.694 C -16.076,10.886 -6.735,7.243 0,0" /></g><g
         transform="translate(406.7485,1227.7939)"
         id="g52"><path
           inkscape:connector-curvature="0"
           id="path54"
           style="fill:#ffffff;fill-opacity:1;fill-rule:nonzero;stroke:none"
           d="m 0,0 c -28.354,0 -51.427,-23.071 -51.427,-51.439 0,-28.362 23.073,-51.424 51.427,-51.424 28.357,0 51.429,23.062 51.429,51.424 C 51.429,-23.071 28.357,0 0,0 m 0,-150.266 c -54.515,0 -98.854,44.33 -98.854,98.827 0,54.502 44.339,98.867 98.854,98.867 54.503,0 98.851,-44.365 98.851,-98.867 0,-54.497 -44.348,-98.827 -98.851,-98.827" /></g><g
         transform="translate(1019.2046,1272.126)"
         id="g56"><path
           inkscape:connector-curvature="0"
           id="path58"
           style="fill:#ffffff;fill-opacity:1;fill-rule:nonzero;stroke:none"
           d="m 0,0 c -44.719,0 -82.358,-30.801 -92.845,-72.307 l 47.12,0 c 8.541,16.573 25.816,27.975 45.725,27.975 28.343,0 51.397,-23.071 51.397,-51.439 0,-28.331 -23.054,-51.398 -51.397,-51.398 -19.909,0 -37.184,11.37 -45.725,27.946 l -47.12,0 c 10.487,-41.506 48.126,-72.307 92.845,-72.307 52.8,0 95.753,42.95 95.753,95.759 C 95.753,-42.953 52.8,0 0,0" /></g><g
         transform="translate(1310.9292,991.6299)"
         id="g60"><path
           inkscape:connector-curvature="0"
           id="path62"
           style="fill:#ffffff;fill-opacity:1;fill-rule:nonzero;stroke:none"
           d="m 0,0 c 0,-6.799 -2.431,-12.151 -7.315,-16.03 -4.879,-3.913 -11.665,-5.866 -20.372,-5.866 -8.01,0 -15.09,1.504 -21.262,4.506 l 0,14.798 c 5.071,-2.256 9.359,-3.843 12.868,-4.752 3.515,-0.928 6.723,-1.377 9.629,-1.377 3.489,0 6.177,0.66 8.041,1.979 1.87,1.329 2.805,3.309 2.805,5.958 0,1.45 -0.411,2.768 -1.24,3.915 -0.815,1.172 -2.023,2.286 -3.62,3.332 -1.595,1.053 -4.834,2.74 -9.731,5.086 -4.597,2.165 -8.03,4.214 -10.319,6.191 -2.299,1.992 -4.129,4.334 -5.499,6.946 -1.373,2.619 -2.061,5.751 -2.061,9.24 0,6.678 2.249,11.882 6.752,15.698 4.508,3.79 10.736,5.685 18.676,5.685 3.911,0 7.63,-0.448 11.17,-1.41 3.549,-0.908 7.248,-2.202 11.116,-3.884 L -5.491,37.651 c -4,1.626 -7.324,2.772 -9.937,3.433 -2.622,0.665 -5.199,0.967 -7.726,0.967 -3.023,0 -5.333,-0.698 -6.941,-2.113 -1.606,-1.377 -2.407,-3.247 -2.407,-5.475 0,-1.408 0.32,-2.644 0.966,-3.669 0.647,-1.088 1.69,-2.074 3.111,-3.037 1.416,-0.989 4.783,-2.736 10.09,-5.259 C -11.304,19.129 -6.51,15.763 -3.903,12.395 -1.297,9.021 0,4.872 0,0" /></g><g
         transform="translate(1465.5142,1045.8564)"
         id="g64"><path
           inkscape:connector-curvature="0"
           id="path66"
           style="fill:#ffffff;fill-opacity:1;fill-rule:nonzero;stroke:none"
           d="m 0,0 0,-48.573 c 0,-5.571 -1.242,-10.411 -3.726,-14.62 -2.483,-4.152 -6.073,-7.366 -10.762,-9.593 -4.694,-2.227 -10.237,-3.336 -16.64,-3.336 -9.659,0 -17.157,2.466 -22.501,7.427 -5.343,4.961 -8.006,11.702 -8.006,20.3 l 0,48.395 15.865,0 0,-45.987 c 0,-5.775 1.166,-10.013 3.497,-12.722 2.33,-2.708 6.18,-4.062 11.555,-4.062 5.204,0 8.976,1.381 11.325,4.094 2.343,2.709 3.516,6.972 3.516,12.805 L -15.877,0 0,0 Z" /></g><g
         transform="translate(1595.5347,970.7549)"
         id="g68"><path
           inkscape:connector-curvature="0"
           id="path70"
           style="fill:#ffffff;fill-opacity:1;fill-rule:nonzero;stroke:none"
           d="m 0,0 -18.077,58.924 -0.467,0 c 0.66,-11.979 0.98,-19.975 0.98,-23.977 l 0,-34.947 -14.226,0 0,75.102 21.67,0 17.773,-57.416 0.311,0 18.851,57.416 21.673,0 0,-75.102 -14.841,0 0,35.553 c 0,1.679 0.032,3.61 0.078,5.803 0.05,2.195 0.281,8.029 0.694,17.471 l -0.464,0 L 14.585,0 0,0 Z" /></g><g
         transform="translate(1774.5591,970.7549)"
         id="g72"><path
           inkscape:connector-curvature="0"
           id="path74"
           style="fill:#ffffff;fill-opacity:1;fill-rule:nonzero;stroke:none"
           d="m 0,0 -18.074,58.924 -0.469,0 c 0.651,-11.979 0.979,-19.975 0.979,-23.977 l 0,-34.947 -14.224,0 0,75.102 21.675,0 17.77,-57.416 0.306,0 18.849,57.416 21.679,0 0,-75.102 -14.842,0 0,35.553 c 0,1.679 0.027,3.61 0.078,5.803 0.045,2.195 0.277,8.029 0.691,17.471 l -0.468,0 L 14.591,0 0,0 Z" /></g><path
         inkscape:connector-curvature="0"
         id="path76"
         style="fill:#ffffff;fill-opacity:1;fill-rule:nonzero;stroke:none"
         d="m 1921.792,1045.856 15.93,0 0,-75.102 -15.93,0 0,75.102 z" /><g
         transform="translate(2065.4263,970.7549)"
         id="g78"><path
           inkscape:connector-curvature="0"
           id="path80"
           style="fill:#ffffff;fill-opacity:1;fill-rule:nonzero;stroke:none"
           d="m 0,0 -15.915,0 0,61.837 -20.398,0 0,13.265 56.711,0 0,-13.265 L 0,61.837 0,0 Z" /></g><g
         transform="translate(702.7065,1152.9033)"
         id="g82"><path
           inkscape:connector-curvature="0"
           id="path84"
           style="fill:#ffffff;fill-opacity:1;fill-rule:nonzero;stroke:none"
           d="m 0,0 c 0,-23.521 -19.091,-42.62 -42.636,-42.62 -23.554,0 -42.649,19.099 -42.649,42.62 l 30.313,0 0,46.916 -30.313,0 0,32.485 c 0,49.804 -40.518,90.348 -90.326,90.348 l 0,-47.431 c 23.656,0 42.904,-19.28 42.904,-42.917 l 0,-32.485 -30.25,0 0,-46.916 30.25,0 c 0,-49.063 39.918,-88.974 88.992,-88.974 49.071,0 88.986,39.911 88.986,88.974 L 0,0 Z" /></g><g
         transform="translate(775.0356,1272.126)"
         id="g86"><path
           inkscape:connector-curvature="0"
           id="path88"
           style="fill:#ffffff;fill-opacity:1;fill-rule:nonzero;stroke:none"
           d="m 0,0 c -39.881,0 -72.315,-32.425 -72.315,-72.307 l 45.256,0 c 0,15.161 12.316,27.491 27.502,27.491 15.194,0 27.497,-12.33 27.497,-27.491 l 44.384,0 C 72.324,-32.425 39.877,0 0,0" /></g></g><g
       id="g4331"
       transform="matrix(1.6257739,0,0,1.6257739,-711.13796,-324.39777)"
       style="fill:#f0841e;fill-opacity:1;stroke:#f0841e;stroke-opacity:1"><g
         id="g4387"
         transform="translate(233.59737,7.7865791)"
         style="fill:#f0841e;fill-opacity:1;stroke:#f0841e;stroke-opacity:1"><g
           transform="matrix(0.45818167,0,0,0.45818167,274.60843,-712.49642)"
           id="g4952"><g
             transform="translate(491.5894,2378.0234)"
             id="g4286"><path
               inkscape:connector-curvature="0"
               id="path4288"
               style="fill:#f5751f;fill-opacity:1;fill-rule:nonzero;stroke:none"
               d="m 0,0 -35.014,0 -19.64,76.178 c -0.728,2.711 -1.968,8.314 -3.719,16.812 -1.753,8.496 -2.762,14.199 -3.025,17.11 -0.397,-3.571 -1.389,-9.307 -2.976,-17.209 -1.587,-7.903 -2.812,-13.539 -3.67,-16.912 L -87.585,0 -122.5,0 l -36.998,145.016 30.253,0 18.549,-79.155 c 3.239,-14.615 5.587,-27.277 7.043,-37.99 0.396,3.77 1.304,9.606 2.727,17.508 1.422,7.9 2.76,14.035 4.017,18.4 l 21.128,81.237 29.063,0 21.127,-81.237 c 0.925,-3.638 2.083,-9.193 3.472,-16.664 1.389,-7.474 2.445,-13.886 3.174,-19.244 0.66,5.158 1.718,11.59 3.174,19.293 1.454,7.703 2.777,13.938 3.967,18.697 l 18.45,79.155 30.253,0 L 0,0 Z" /></g><g
             transform="translate(717.6079,2378.0234)"
             id="g4290"><path
               inkscape:connector-curvature="0"
               id="path4292"
               style="fill:#f5751f;fill-opacity:1;fill-rule:nonzero;stroke:none"
               d="m 0,0 -83.518,0 0,145.016 83.518,0 0,-25.196 -52.769,0 0,-31.84 49.099,0 0,-25.193 -49.099,0 0,-37.394 L 0,25.393 0,0 Z" /></g><g
             transform="translate(1046.2524,2438.3301)"
             id="g4294"><path
               inkscape:connector-curvature="0"
               id="path4296"
               style="fill:#f5751f;fill-opacity:1;fill-rule:nonzero;stroke:none"
               d="m 0,0 c -9.721,31.277 -15.193,48.967 -16.416,53.066 -1.224,4.1 -2.1,7.342 -2.628,9.721 C -21.227,54.322 -27.476,33.393 -37.792,0 L 0,0 Z m 17.854,-60.307 -10.514,34.518 -52.868,0 -10.514,-34.518 -33.13,0 51.182,145.612 37.594,0 51.38,-145.612 -33.13,0 z" /></g><g
             transform="translate(1233.5869,2458.6641)"
             id="g4298"><path
               inkscape:connector-curvature="0"
               id="path4300"
               style="fill:#f5751f;fill-opacity:1;fill-rule:nonzero;stroke:none"
               d="m 0,0 9.919,0 c 9.721,0 16.894,1.619 21.524,4.861 4.628,3.239 6.944,8.332 6.944,15.276 0,6.877 -2.366,11.769 -7.093,14.679 -4.729,2.909 -12.051,4.364 -21.97,4.364 L 0,39.18 0,0 Z m 0,-24.996 0,-55.645 -30.749,0 0,145.016 42.255,0 c 19.705,0 34.286,-3.588 43.743,-10.762 9.455,-7.175 14.184,-18.07 14.184,-32.683 0,-8.532 -2.348,-16.119 -7.042,-22.764 C 57.694,-8.48 51.049,-13.688 42.453,-17.457 64.274,-50.059 78.491,-71.119 85.104,-80.641 l -34.121,0 -34.617,55.645 -16.366,0 z" /></g><g
             transform="translate(1507.8125,2378.0234)"
             id="g4302"><path
               inkscape:connector-curvature="0"
               id="path4304"
               style="fill:#f5751f;fill-opacity:1;fill-rule:nonzero;stroke:none"
               d="m 0,0 -83.519,0 0,145.016 83.519,0 0,-25.196 -52.77,0 0,-31.84 49.099,0 0,-25.193 -49.099,0 0,-37.394 52.77,0 L 0,0 Z" /></g><g
             transform="translate(1791.3242,2450.7285)"
             id="g4306"><path
               inkscape:connector-curvature="0"
               id="path4308"
               style="fill:#f5751f;fill-opacity:1;fill-rule:nonzero;stroke:none"
               d="m 0,0 c 0,-16.201 3.075,-28.402 9.225,-36.6 6.15,-8.201 15.34,-12.3 27.575,-12.3 24.532,0 36.8,16.3 36.8,48.9 0,32.666 -12.201,49 -36.602,49 C 24.764,49 15.539,44.885 9.324,36.652 3.107,28.418 0,16.201 0,0 m 105.836,0 c 0,-24.004 -5.951,-42.453 -17.854,-55.348 C 76.079,-68.242 59.019,-74.689 36.8,-74.689 c -22.219,0 -39.279,6.447 -51.182,19.341 -11.903,12.895 -17.854,31.411 -17.854,55.547 0,24.135 5.966,42.569 17.903,55.299 11.936,12.729 29.046,19.094 51.331,19.094 22.284,0 39.329,-6.414 51.133,-19.242 C 99.935,42.52 105.836,24.07 105.836,0" /></g><g
             transform="translate(2045.3154,2454.7969)"
             id="g4310"><path
               inkscape:connector-curvature="0"
               id="path4312"
               style="fill:#f5751f;fill-opacity:1;fill-rule:nonzero;stroke:none"
               d="m 0,0 10.117,0 c 9.456,0 16.531,1.867 21.227,5.604 4.694,3.734 7.043,9.175 7.043,16.316 0,7.207 -1.969,12.531 -5.903,15.971 -3.934,3.437 -10.101,5.156 -18.499,5.156 L 0,43.047 0,0 Z m 69.433,23.012 c 0,-15.608 -4.877,-27.543 -14.63,-35.809 -9.755,-8.265 -23.625,-12.398 -41.611,-12.398 l -13.192,0 0,-51.578 -30.749,0 0,145.015 46.322,0 c 17.589,0 30.962,-3.787 40.122,-11.357 9.159,-7.572 13.738,-18.864 13.738,-33.873" /></g><g
             transform="translate(2312.9941,2378.0234)"
             id="g4314"><path
               inkscape:connector-curvature="0"
               id="path4316"
               style="fill:#f5751f;fill-opacity:1;fill-rule:nonzero;stroke:none"
               d="m 0,0 -83.519,0 0,145.016 83.519,0 0,-25.196 -52.77,0 0,-31.84 49.099,0 0,-25.193 -49.099,0 0,-37.394 52.77,0 L 0,0 Z" /></g><g
             transform="translate(2559.2471,2378.0234)"
             id="g4318"><path
               inkscape:connector-curvature="0"
               id="path4320"
               style="fill:#f5751f;fill-opacity:1;fill-rule:nonzero;stroke:none"
               d="m 0,0 -39.081,0 -63.085,109.703 -0.893,0 c 1.256,-19.375 1.885,-33.195 1.885,-41.461 l 0,-68.242 -27.475,0 0,145.016 38.783,0 62.986,-108.614 0.694,0 c -0.992,18.846 -1.488,32.17 -1.488,39.973 l 0,68.641 27.674,0 L 0,0 Z" /></g></g></g></g></g></svg>