<?xml version="1.0" encoding="UTF-8" standalone="no"?>
<!-- Created with Inkscape (http://www.inkscape.org/) -->

<svg
   xmlns:dc="http://purl.org/dc/elements/1.1/"
   xmlns:cc="http://creativecommons.org/ns#"
   xmlns:rdf="http://www.w3.org/1999/02/22-rdf-syntax-ns#"
   xmlns:svg="http://www.w3.org/2000/svg"
   xmlns="http://www.w3.org/2000/svg"
   xmlns:sodipodi="http://sodipodi.sourceforge.net/DTD/sodipodi-0.dtd"
   xmlns:inkscape="http://www.inkscape.org/namespaces/inkscape"
   width="87mm"
   height="57mm"
   viewBox="0 0 308.26771 201.9685"
   id="svg5196"
   version="1.1"
   inkscape:version="0.91 r13725"
   sodipodi:docname="OpnTec-sample-card back.svg"
   inkscape:export-filename="/home/opntec/git/opntec-artwork/cards/svg/OpnTec-sample-card back.png"
   inkscape:export-xdpi="600"
   inkscape:export-ydpi="600">
  <defs
     id="defs5198">
    <inkscape:perspective
       id="perspective6024"
       inkscape:persp3d-origin="372.0472 : 350.78737 : 1"
       inkscape:vp_z="744.09441 : 526.18107 : 1"
       inkscape:vp_y="0 : 999.99996 : 0"
       inkscape:vp_x="0 : 526.18107 : 1"
       sodipodi:type="inkscape:persp3d" />
  </defs>
  <sodipodi:namedview
     id="base"
     pagecolor="#ffffff"
     bordercolor="#666666"
     borderopacity="1.0"
     inkscape:pageopacity="0.0"
     inkscape:pageshadow="2"
     inkscape:zoom="0.98994949"
     inkscape:cx="-127.39297"
     inkscape:cy="54.342118"
     inkscape:document-units="px"
     inkscape:current-layer="layer1"
     showgrid="false"
     fit-margin-top="0"
     fit-margin-left="0"
     fit-margin-right="0"
     fit-margin-bottom="0"
     inkscape:window-width="1366"
     inkscape:window-height="742"
     inkscape:window-x="0"
     inkscape:window-y="0"
     inkscape:window-maximized="1"
     showguides="false"
     borderlayer="true">
    <inkscape:grid
       type="xygrid"
       id="grid4177"
       originx="8.7402347e-07"
       originy="-5.448392e-06" />
  </sodipodi:namedview>
  <metadata
     id="metadata5201">
    <rdf:RDF>
      <cc:Work
         rdf:about="">
        <dc:format>image/svg+xml</dc:format>
        <dc:type
           rdf:resource="http://purl.org/dc/dcmitype/StillImage" />
        <dc:title></dc:title>
      </cc:Work>
    </rdf:RDF>
  </metadata>
  <g
     inkscape:label="Layer 1"
     inkscape:groupmode="layer"
     id="layer1"
     transform="translate(242.39952,-429.33502)"
     style="display:inline">
    <rect
       y="429.33502"
       x="-242.39952"
       style="fill:#ff8700"
       width="308.26773"
       height="201.96851"
       id="rect3" />
    <g
       id="g3378"
       transform="matrix(0.90372906,0,0,0.90372906,-3.89419,54.166699)">
      <g
         transform="matrix(0.40504983,0,0,0.40504983,-195.83645,408.55224)"
         id="g5">
        <g
           id="g7">
          <path
             style="fill:#ffffff"
             inkscape:connector-curvature="0"
             id="path9"
             d="m 147.227,314.324 c -33.739,0 -61.188,-27.449 -61.188,-61.188 0,-33.739 27.448,-61.188 61.188,-61.188 33.738,0 61.188,27.448 61.188,61.188 0,33.739 -27.45,61.188 -61.188,61.188 z m 0,-93.02 c -17.553,0 -31.834,14.28 -31.834,31.833 0,17.554 14.281,31.834 31.834,31.834 17.553,0 31.833,-14.28 31.833,-31.834 0,-17.553 -14.28,-31.833 -31.833,-31.833 z" />
        </g>
        <path
           style="fill:#ffffff"
           inkscape:connector-curvature="0"
           id="path11"
           d="m 330.421,267.65 c 0,14.579 -11.816,26.395 -26.395,26.395 -14.576,0 -26.395,-11.815 -26.395,-26.395 l 18.764,0 0,-29.027 -18.764,0 0,-20.117 c 0,-30.83 -25.083,-55.911 -55.912,-55.911 l 0,29.354 c 14.644,0 26.558,11.914 26.558,26.557 l 0,20.117 -18.727,0 0,29.027 18.727,0 c 0,30.374 24.709,55.086 55.084,55.086 30.373,0 55.082,-24.712 55.082,-55.086 l -28.022,0 z" />
        <path
           style="fill:#ffffff"
           inkscape:connector-curvature="0"
           id="path13"
           d="m 375.194,193.857 c -24.684,0 -44.766,20.082 -44.766,44.766 l 28.016,0 c 0,-9.4 7.621,-17.023 17.023,-17.023 9.4,0 17.023,7.623 17.023,17.023 l 27.469,0 c 10e-4,-24.684 -20.081,-44.766 -44.765,-44.766 z" />
      </g>
      <g
         transform="matrix(0.62463581,0,0,0.62463581,-167.64003,528.94543)"
         id="g4208">
        <path
           style="fill:#ffffff"
           inkscape:connector-curvature="0"
           id="path40-9-3"
           d="m 44.179088,43.338374 c -8.717852,0 -16.060056,6.003496 -18.097669,14.094845 l 9.184772,0 c 1.66526,-3.231516 5.032713,-5.450874 8.912897,-5.450874 5.526228,0 10.022571,4.496341 10.022571,10.025529 0,5.524752 -4.496343,10.021096 -10.022571,10.021096 -3.880184,0 -7.247637,-2.216403 -8.912897,-5.450874 l -9.184772,0 c 2.037613,8.092827 9.379817,14.099278 18.097669,14.099278 10.295928,0 18.665065,-8.373571 18.665065,-18.6695 0,-10.297409 -8.369137,-18.6695 -18.665065,-18.6695 z" />
        <text
           xml:space="preserve"
           style="font-style:normal;font-weight:normal;font-size:51.36038589px;line-height:1000%;font-family:sans-serif;letter-spacing:0px;word-spacing:0px;fill:#ffffff;fill-opacity:1;stroke:none;stroke-width:1px;stroke-linecap:butt;stroke-linejoin:miter;stroke-opacity:1"
           x="63.161266"
           y="79.804245"
           id="text4141-6"
           sodipodi:linespacing="1000%"><tspan
             sodipodi:role="line"
             id="tspan4143-7"
             x="63.161266"
             y="79.804245"
             style="font-style:normal;font-variant:normal;font-weight:bold;font-stretch:normal;font-family:'Fira Sans';-inkscape-font-specification:'Fira Sans Bold';fill:#ffffff">PNTEC</tspan></text>
      </g>
    </g>
  </g>
</svg>
