<?xml version="1.0" encoding="UTF-8" standalone="no"?>
<!-- Created with Inkscape (http://www.inkscape.org/) -->

<svg
   xmlns:dc="http://purl.org/dc/elements/1.1/"
   xmlns:cc="http://creativecommons.org/ns#"
   xmlns:rdf="http://www.w3.org/1999/02/22-rdf-syntax-ns#"
   xmlns:svg="http://www.w3.org/2000/svg"
   xmlns="http://www.w3.org/2000/svg"
   xmlns:sodipodi="http://sodipodi.sourceforge.net/DTD/sodipodi-0.dtd"
   xmlns:inkscape="http://www.inkscape.org/namespaces/inkscape"
   id="svg2"
   version="1.1"
   inkscape:version="0.91 r13725"
   xml:space="preserve"
   width="86.999939cm"
   height="227.00015cm"
   viewBox="0 0 3082.675 8043.3125"
   sodipodi:docname="RollUp_85x200_orange.svg"><metadata
     id="metadata8"><rdf:RDF><cc:Work
         rdf:about=""><dc:format>image/svg+xml</dc:format><dc:type
           rdf:resource="http://purl.org/dc/dcmitype/StillImage" /><dc:title></dc:title></cc:Work></rdf:RDF></metadata><defs
     id="defs6"><clipPath
       clipPathUnits="userSpaceOnUse"
       id="clipPath20"><path
         d="m 0,6434.646 2466.142,0 L 2466.142,0 0,0 0,6434.646 Z"
         id="path22"
         inkscape:connector-curvature="0" /></clipPath><clipPath
       clipPathUnits="userSpaceOnUse"
       id="clipPath136"><path
         d="m 0,6434.646 2466.142,0 L 2466.142,0 0,0 0,6434.646 Z"
         id="path138"
         inkscape:connector-curvature="0" /></clipPath></defs><sodipodi:namedview
     pagecolor="#ffffff"
     bordercolor="#666666"
     borderopacity="1"
     objecttolerance="10"
     gridtolerance="10"
     guidetolerance="10"
     inkscape:pageopacity="0"
     inkscape:pageshadow="2"
     inkscape:window-width="1366"
     inkscape:window-height="715"
     id="namedview4"
     showgrid="false"
     inkscape:zoom="0.05868229"
     inkscape:cx="-2620.4405"
     inkscape:cy="5082.2749"
     inkscape:window-x="0"
     inkscape:window-y="0"
     inkscape:window-maximized="1"
     inkscape:current-layer="g10"
     units="cm" /><g
     id="g10"
     inkscape:groupmode="layer"
     inkscape:label="RollUp_85x200_dunkelgrau_CoatedFORGA27"
     transform="matrix(1.25,0,0,-1.25,0,8043.3125)"><path
       d="M -9.8915785e-4,0 2466.141,0 l 0,6442.8155 -2466.14198915785,0 0,-6442.8155 z"
       style="fill:#ef841b;fill-opacity:1;fill-rule:nonzero;stroke:none"
       id="path14"
       inkscape:connector-curvature="0" /><g
       id="g5120"
       transform="translate(-6.9892347e-4,0)"><g
         transform="translate(751.2358,5187.4165)"
         id="g24"><path
           inkscape:connector-curvature="0"
           id="path26"
           style="fill:#ffffff;fill-opacity:1;fill-rule:nonzero;stroke:none"
           d="m 0,0 c -79.96,0 -145.016,-65.037 -145.016,-145.014 0,-79.927 65.056,-145.007 145.016,-145.007 79.956,0 145.01,65.08 145.01,145.007 C 145.01,-65.037 79.956,0 0,0 m 0,-423.738 c -153.684,0 -278.726,125.058 -278.726,278.724 0,153.711 125.042,278.748 278.726,278.748 153.691,0 278.73,-125.037 278.73,-278.748 C 278.73,-298.68 153.691,-423.738 0,-423.738" /></g><g
         transform="translate(1585.7349,4976.3149)"
         id="g28"><path
           inkscape:connector-curvature="0"
           id="path30"
           style="fill:#ffffff;fill-opacity:1;fill-rule:nonzero;stroke:none"
           d="m 0,0 c 0,-66.418 -53.822,-120.25 -120.228,-120.25 -66.409,0 -120.249,53.832 -120.249,120.25 l 85.481,0 0,132.221 -85.481,0 0,91.642 c 0,140.444 -114.243,254.69 -254.676,254.69 l 0,-133.717 c 66.701,0 120.968,-54.287 120.968,-120.973 l 0,-91.642 -85.3,0 0,-132.221 85.3,0 c 0,-138.371 112.569,-250.955 250.925,-250.955 138.357,0 250.909,112.584 250.909,250.955 L 0,0 Z" /></g><g
         transform="translate(1789.7046,5312.4497)"
         id="g32"><path
           inkscape:connector-curvature="0"
           id="path34"
           style="fill:#ffffff;fill-opacity:1;fill-rule:nonzero;stroke:none"
           d="m 0,0 c -112.458,0 -203.941,-91.467 -203.941,-203.914 l 127.621,0 c 0,42.82 34.73,77.56 77.556,77.56 42.837,0 77.554,-34.74 77.554,-77.56 l 125.137,0 C 203.927,-91.467 112.446,0 0,0" /></g><g
         transform="translate(878.5884,4423.645)"
         id="g36"><path
           inkscape:connector-curvature="0"
           id="path38"
           style="fill:#ffffff;fill-opacity:1;fill-rule:nonzero;stroke:none"
           d="m 0,0 c 0,20.176 -2.335,34.207 -6.955,42.027 -4.575,7.854 -11.619,11.76 -21.063,11.76 -5.382,0 -10.548,-1.746 -15.627,-5.289 -5.071,-3.551 -9.407,-8.439 -13.064,-14.68 l 0,-72.148 c 6.917,-10.074 15.589,-15.139 26.127,-15.139 C -10.2,-53.469 0,-35.652 0,0 M 36.848,67.492 C 47.506,51.713 52.815,29.43 52.815,0.654 52.815,-16.971 50.08,-32.672 44.572,-46.539 39.108,-60.389 31.23,-71.232 20.94,-79.07 10.605,-86.898 -1.412,-90.805 -15.143,-90.805 c -17.172,0 -31.029,5.979 -41.566,18.006 l 0,-78.576 -50.889,-5.461 0,242.533 44.764,0 2.588,-18.994 c 6.669,8.332 14.23,14.518 22.7,18.492 8.491,3.967 17.007,5.969 25.612,5.969 21.906,0 38.187,-7.894 48.782,-23.672" /></g><g
         transform="translate(1062.4634,4441.7017)"
         id="g40"><path
           inkscape:connector-curvature="0"
           id="path42"
           style="fill:#ffffff;fill-opacity:1;fill-rule:nonzero;stroke:none"
           d="m 0,0 c -0.4,26.172 -9.642,39.281 -27.691,39.281 -8.806,0 -15.555,-3.154 -20.254,-9.496 -4.744,-6.359 -7.766,-17.039 -9.043,-32.064 L 0,-2.279 0,0 Z m 48.987,-32.877 -105.658,0 c 1.532,-14.367 5.472,-24.477 11.944,-30.277 6.432,-5.787 15.302,-8.707 26.721,-8.707 6.873,0 13.506,1.277 19.938,3.715 6.462,2.472 13.423,6.298 20.974,11.457 l 20.891,-28.374 c -19.922,-15.867 -42.194,-23.798 -66.625,-23.798 -27.728,0 -48.997,8.123 -63.825,24.453 -14.784,16.314 -22.185,38.224 -22.185,65.721 0,17.375 3.09,33.005 9.311,46.865 6.288,13.836 15.378,24.799 27.416,32.832 12.021,8.054 26.417,12.097 43.131,12.097 24.721,0 44.005,-7.714 57.987,-23.207 13.954,-15.466 20.91,-36.929 20.91,-64.388 0,-7.086 -0.325,-13.203 -0.93,-18.389" /></g><g
         transform="translate(1276.6763,4501.272)"
         id="g44"><path
           inkscape:connector-curvature="0"
           id="path46"
           style="fill:#ffffff;fill-opacity:1;fill-rule:nonzero;stroke:none"
           d="m 0,0 c 8.365,-9.012 12.541,-21.697 12.541,-38.01 l 0,-124.961 -50.867,0 0,116.268 c 0,8.588 -1.373,14.551 -4.034,17.869 -2.692,3.344 -6.704,4.994 -12.064,4.994 -10.324,0 -20.21,-7.414 -29.664,-22.224 l 0,-116.907 -50.855,0 0,171.041 44.436,0 3.538,-20.316 c 7.508,8.6 15.515,15.047 23.992,19.322 8.492,4.313 17.881,6.461 28.176,6.461 C -19.973,13.537 -8.403,9.002 0,0" /></g><g
         transform="translate(1420.979,4520.9282)"
         id="g48"><path
           inkscape:connector-curvature="0"
           id="path50"
           style="fill:#ffffff;fill-opacity:1;fill-rule:nonzero;stroke:none"
           d="m 0,0 0,-182.627 -52.818,0 0,182.627 -57.67,0 0,40.576 170.68,0 L 55.048,0 0,0 Z" /></g><g
         transform="translate(1574.8989,4441.7017)"
         id="g52"><path
           inkscape:connector-curvature="0"
           id="path54"
           style="fill:#ffffff;fill-opacity:1;fill-rule:nonzero;stroke:none"
           d="m 0,0 c -0.404,26.172 -9.653,39.281 -27.691,39.281 -8.799,0 -15.548,-3.154 -20.301,-9.496 C -52.731,23.426 -55.699,12.746 -57,-2.279 l 57,0 L 0,0 Z m 48.948,-32.877 -105.628,0 c 1.494,-14.367 5.486,-24.477 11.903,-30.277 6.44,-5.787 15.354,-8.707 26.771,-8.707 6.844,0 13.508,1.277 19.936,3.715 6.426,2.472 13.417,6.298 20.934,11.457 l 20.94,-28.374 c -19.928,-15.867 -42.2,-23.798 -66.625,-23.798 -27.736,0 -48.962,8.123 -63.83,24.453 -14.796,16.314 -22.189,38.224 -22.189,65.721 0,17.375 3.095,33.005 9.326,46.865 6.233,13.836 15.357,24.799 27.368,32.832 12.017,8.054 26.403,12.097 43.177,12.097 24.721,0 44.006,-7.714 57.948,-23.207 13.988,-15.466 20.949,-36.929 20.949,-64.388 0,-7.086 -0.336,-13.203 -0.98,-18.389" /></g><g
         transform="translate(1760.0913,4509.645)"
         id="g56"><path
           inkscape:connector-curvature="0"
           id="path58"
           style="fill:#ffffff;fill-opacity:1;fill-rule:nonzero;stroke:none"
           d="M 0,0 C 9.451,-3.439 18.381,-8.703 26.769,-15.795 L 4.513,-46.383 c -10.289,8.371 -21.064,12.578 -32.207,12.578 -11.358,0 -19.961,-4.207 -25.745,-12.578 -5.79,-8.383 -8.724,-21.914 -8.724,-40.576 0,-18.051 2.934,-30.814 8.724,-38.338 5.784,-7.484 14.137,-11.26 25.116,-11.26 5.984,0 11.367,0.959 16.12,2.887 4.69,1.943 9.965,5.149 15.749,9.686 l 23.223,-32.534 c -16.995,-13.546 -36.214,-20.287 -57.674,-20.287 -17.403,0 -32.432,3.69 -45.084,11.119 -12.705,7.381 -22.479,17.829 -29.295,31.221 -6.92,13.41 -10.336,29.152 -10.336,47.186 0,18.023 3.416,34.035 10.336,47.98 6.816,13.947 16.59,24.852 29.295,32.695 12.652,7.848 27.368,11.768 44.092,11.768 C -20.089,5.164 -9.445,3.43 0,0" /></g><g
         transform="translate(1943.3696,4501.272)"
         id="g60"><path
           inkscape:connector-curvature="0"
           id="path62"
           style="fill:#ffffff;fill-opacity:1;fill-rule:nonzero;stroke:none"
           d="m 0,0 c 8.353,-9.012 12.536,-21.697 12.536,-38.01 l 0,-124.961 -50.883,0 0,116.268 c 0,8.588 -1.361,14.551 -4.168,17.869 -2.813,3.344 -6.764,4.994 -11.902,4.994 -10.325,0 -20.214,-7.31 -29.655,-21.877 l 0,-117.254 -50.903,0 0,238.983 50.903,5.156 0,-91.141 c 7.068,7.942 14.625,13.842 22.536,17.715 7.96,3.844 16.845,5.795 26.731,5.795 C -19.977,13.537 -8.361,9.002 0,0" /></g><g
         transform="translate(625.5444,4567.6294)"
         id="g64"><path
           inkscape:connector-curvature="0"
           id="path66"
           style="fill:#ffffff;fill-opacity:1;fill-rule:nonzero;stroke:none"
           d="m 0,0 c -55.55,0 -102.329,-38.242 -115.308,-89.801 l 58.522,0 c 10.61,20.582 32.065,34.729 56.786,34.729 35.211,0 63.863,-28.647 63.863,-63.873 0,-35.194 -28.652,-63.844 -63.863,-63.844 -24.721,0 -46.176,14.125 -56.786,34.734 l -58.522,0 c 12.979,-51.558 59.758,-89.836 115.308,-89.836 65.594,0 118.925,53.356 118.925,118.946 C 118.925,-53.338 65.594,0 0,0" /></g><g
         transform="translate(987.9458,4219.2173)"
         id="g68"><path
           inkscape:connector-curvature="0"
           id="path70"
           style="fill:#ffffff;fill-opacity:1;fill-rule:nonzero;stroke:none"
           d="m 0,0 c 0,-8.432 -3.041,-15.088 -9.1,-19.906 -6.085,-4.867 -14.525,-7.278 -25.304,-7.278 -9.973,0 -18.758,1.867 -26.446,5.6 l 0,18.406 c 6.318,-2.836 11.657,-4.808 15.999,-5.973 4.371,-1.113 8.364,-1.718 11.976,-1.718 4.342,0 7.677,0.846 9.971,2.523 2.332,1.649 3.496,4.119 3.496,7.379 0,1.815 -0.52,3.473 -1.521,4.854 -1.017,1.453 -2.538,2.808 -4.516,4.121 -1.961,1.359 -6.027,3.43 -12.096,6.326 -5.703,2.695 -9.957,5.281 -12.854,7.734 -2.807,2.473 -5.072,5.342 -6.794,8.606 -1.731,3.283 -2.534,7.111 -2.534,11.465 0,8.271 2.769,14.787 8.366,19.476 5.621,4.737 13.347,7.084 23.226,7.084 4.825,0 9.445,-0.576 13.876,-1.709 4.372,-1.15 8.987,-2.773 13.781,-4.857 L -6.841,46.764 c -4.978,2.021 -9.063,3.463 -12.37,4.285 -3.209,0.777 -6.428,1.209 -9.558,1.209 -3.776,0 -6.629,-0.881 -8.639,-2.619 -2.026,-1.762 -3.02,-4.016 -3.02,-6.834 0,-1.737 0.446,-3.258 1.244,-4.586 0.81,-1.281 2.045,-2.551 3.859,-3.725 1.775,-1.213 5.95,-3.404 12.547,-6.576 8.721,-4.174 14.657,-8.303 17.911,-12.514 C -1.65,11.197 0,6.066 0,0" /></g><g
         transform="translate(1179.9399,4286.5767)"
         id="g72"><path
           inkscape:connector-curvature="0"
           id="path74"
           style="fill:#ffffff;fill-opacity:1;fill-rule:nonzero;stroke:none"
           d="m 0,0 0,-60.326 c 0,-6.904 -1.564,-12.969 -4.627,-18.164 -3.086,-5.149 -7.559,-9.158 -13.38,-11.905 -5.821,-2.767 -12.705,-4.148 -20.659,-4.148 -12.004,0 -21.299,3.076 -27.922,9.195 -6.683,6.133 -9.967,14.551 -9.967,25.239 l 0,60.109 19.683,0 0,-57.086 c 0,-7.205 1.448,-12.469 4.343,-15.82 2.899,-3.371 7.729,-5.065 14.39,-5.065 6.424,0 11.133,1.694 14.068,5.098 2.885,3.379 4.336,8.668 4.336,15.916 L -19.735,0 0,0 Z" /></g><g
         transform="translate(1341.4214,4193.3208)"
         id="g76"><path
           inkscape:connector-curvature="0"
           id="path78"
           style="fill:#ffffff;fill-opacity:1;fill-rule:nonzero;stroke:none"
           d="m 0,0 -22.462,73.143 -0.559,0 c 0.801,-14.879 1.245,-24.782 1.245,-29.758 l 0,-43.385 -17.686,0 0,93.256 26.895,0 22.102,-71.309 0.389,0 23.396,71.309 26.935,0 0,-93.256 -18.446,0 0,44.127 c 0,2.084 0.029,4.512 0.118,7.225 0.044,2.712 0.328,9.97 0.847,21.689 l -0.572,0 L 18.135,0 0,0 Z" /></g><g
         transform="translate(1563.8091,4193.3208)"
         id="g80"><path
           inkscape:connector-curvature="0"
           id="path82"
           style="fill:#ffffff;fill-opacity:1;fill-rule:nonzero;stroke:none"
           d="m 0,0 -22.436,73.143 -0.554,0 c 0.804,-14.879 1.2,-24.782 1.2,-29.758 l 0,-43.385 -17.677,0 0,93.256 26.93,0 22.098,-71.309 0.365,0 23.395,71.309 26.927,0 0,-93.256 -18.411,0 0,44.127 c 0,2.084 0,4.512 0.075,7.225 0.046,2.712 0.374,9.97 0.846,21.689 l -0.56,0 L 18.166,0 0,0 Z" /></g><path
         inkscape:connector-curvature="0"
         id="path84"
         style="fill:#ffffff;fill-opacity:1;fill-rule:nonzero;stroke:none"
         d="m 1746.719,4286.577 19.769,0 0,-93.256 -19.769,0 0,93.256 z" /><g
         transform="translate(1925.1284,4193.3208)"
         id="g86"><path
           inkscape:connector-curvature="0"
           id="path88"
           style="fill:#ffffff;fill-opacity:1;fill-rule:nonzero;stroke:none"
           d="m 0,0 -19.786,0 0,76.807 -25.317,0 0,16.449 70.464,0 0,-16.449 L 0,76.807 0,0 Z" /></g></g><path
       d="m -9.9540785e-4,2718.4755 2466.14199540785,0 0,438.757 -2466.14199540785,0 0,-438.757 z"
       style="fill:#2b2b2c;fill-opacity:1;fill-rule:nonzero;stroke:none"
       id="path12"
       inkscape:connector-curvature="0" /><g
       transform="matrix(0.84541284,0,0,0.84541284,10.882528,315.1588)"
       id="g4791"><g
         transform="translate(596.7578,1951.583)"
         id="g4388"><path
           inkscape:connector-curvature="0"
           id="path4390"
           style="fill:#ffffff;fill-opacity:1;fill-rule:nonzero;stroke:none"
           d="m 0,0 c 0,21.005 -9.276,31.507 -27.828,31.507 l -11.037,0 0,-63.684 8.896,0 C -9.99,-32.177 0,-21.452 0,0 m 21.54,0.535 c 0,-16.1 -4.582,-28.431 -13.746,-36.993 -9.165,-8.563 -22.399,-12.844 -39.702,-12.844 l -27.695,0 0,97.801 30.705,0 c 15.964,0 28.363,-4.215 37.193,-12.644 8.83,-8.428 13.245,-20.202 13.245,-35.32" /></g><g
         transform="translate(730.2363,1942.9531)"
         id="g4392"><path
           inkscape:connector-curvature="0"
           id="path4394"
           style="fill:#ffffff;fill-opacity:1;fill-rule:nonzero;stroke:none"
           d="m 0,0 c -6.556,21.094 -10.246,33.023 -11.07,35.789 -0.826,2.765 -1.417,4.95 -1.774,6.556 C -14.315,36.636 -18.529,22.521 -25.486,0 L 0,0 Z m 12.041,-40.672 -7.091,23.279 -35.654,0 -7.091,-23.279 -22.343,0 34.518,98.201 25.352,0 34.652,-98.201 -22.343,0 z" /></g><g
         transform="translate(858.498,1902.2813)"
         id="g4396"><path
           inkscape:connector-curvature="0"
           id="path4398"
           style="fill:#ffffff;fill-opacity:1;fill-rule:nonzero;stroke:none"
           d="m 0,0 -20.737,0 0,80.541 -26.558,0 0,17.26 73.852,0 0,-17.26 L 0,80.541 0,0 Z" /></g><g
         transform="translate(991.7754,1942.9531)"
         id="g4400"><path
           inkscape:connector-curvature="0"
           id="path4402"
           style="fill:#ffffff;fill-opacity:1;fill-rule:nonzero;stroke:none"
           d="m 0,0 c -6.556,21.094 -10.246,33.023 -11.07,35.789 -0.826,2.765 -1.417,4.95 -1.774,6.556 C -14.315,36.636 -18.529,22.521 -25.486,0 L 0,0 Z m 12.041,-40.672 -7.091,23.279 -35.654,0 -7.091,-23.279 -22.343,0 34.518,98.201 25.352,0 34.652,-98.201 -22.343,0 z" /></g><g
         transform="translate(1138.0742,1950.6465)"
         id="g4404"><path
           inkscape:connector-curvature="0"
           id="path4406"
           style="fill:#ffffff;fill-opacity:1;fill-rule:nonzero;stroke:none"
           d="m 0,0 c 0,3.746 1.003,6.578 3.01,8.496 2.007,1.916 4.927,2.876 8.763,2.876 3.702,0 6.566,-0.981 8.596,-2.943 2.028,-1.963 3.044,-4.773 3.044,-8.429 0,-3.613 -1.037,-6.412 -3.11,-8.395 -2.074,-1.986 -4.917,-2.978 -8.53,-2.978 -3.746,0 -6.645,0.98 -8.696,2.943 C 1.025,-6.467 0,-3.658 0,0" /></g><g
         transform="translate(1365.8496,1902.2813)"
         id="g4408"><path
           inkscape:connector-curvature="0"
           id="path4410"
           style="fill:#ffffff;fill-opacity:1;fill-rule:nonzero;stroke:none"
           d="m 0,0 -20.67,0 0,42.211 -38.732,0 0,-42.211 -20.737,0 0,97.801 20.737,0 0,-38.331 38.732,0 0,38.331 20.67,0 L 0,0 Z" /></g><g
         transform="translate(1482.2041,1942.9531)"
         id="g4412"><path
           inkscape:connector-curvature="0"
           id="path4414"
           style="fill:#ffffff;fill-opacity:1;fill-rule:nonzero;stroke:none"
           d="m 0,0 c -6.557,21.094 -10.247,33.023 -11.071,35.789 -0.826,2.765 -1.417,4.95 -1.773,6.556 C -14.316,36.636 -18.53,22.521 -25.487,0 L 0,0 Z m 12.041,-40.672 -7.092,23.279 -35.654,0 -7.091,-23.279 -22.343,0 34.518,98.201 25.353,0 34.651,-98.201 -22.342,0 z" /></g><g
         transform="translate(1593.4736,1956.667)"
         id="g4416"><path
           inkscape:connector-curvature="0"
           id="path4418"
           style="fill:#ffffff;fill-opacity:1;fill-rule:nonzero;stroke:none"
           d="m 0,0 6.689,0 c 6.556,0 11.394,1.093 14.516,3.278 3.121,2.184 4.684,5.619 4.684,10.301 0,4.639 -1.596,7.938 -4.784,9.9 -3.189,1.963 -8.127,2.944 -14.817,2.944 L 0,26.423 0,0 Z m 0,-16.858 0,-37.528 -20.737,0 0,97.801 28.497,0 c 13.289,0 23.122,-2.42 29.5,-7.258 6.377,-4.84 9.566,-12.187 9.566,-22.043 0,-5.752 -1.584,-10.869 -4.75,-15.351 -3.167,-4.483 -7.648,-7.994 -13.445,-10.537 14.717,-21.987 24.305,-36.19 28.765,-42.612 l -23.012,0 -23.347,37.528 -11.037,0 z" /></g><g
         transform="translate(1766.6201,1951.583)"
         id="g4420"><path
           inkscape:connector-curvature="0"
           id="path4422"
           style="fill:#ffffff;fill-opacity:1;fill-rule:nonzero;stroke:none"
           d="m 0,0 c 0,21.005 -9.276,31.507 -27.828,31.507 l -11.037,0 0,-63.684 8.896,0 C -9.99,-32.177 0,-21.452 0,0 m 21.541,0.535 c 0,-16.1 -4.583,-28.431 -13.747,-36.993 -9.165,-8.563 -22.399,-12.844 -39.702,-12.844 l -27.695,0 0,97.801 30.705,0 c 15.964,0 28.363,-4.215 37.193,-12.644 8.83,-8.428 13.246,-20.202 13.246,-35.32" /></g><g
         transform="translate(1947.5273,1902.2813)"
         id="g4424"><path
           inkscape:connector-curvature="0"
           id="path4426"
           style="fill:#ffffff;fill-opacity:1;fill-rule:nonzero;stroke:none"
           d="m 0,0 -23.614,0 -13.244,51.375 c -0.493,1.828 -1.329,5.607 -2.509,11.34 -1.183,5.728 -1.863,9.576 -2.04,11.539 -0.268,-2.408 -0.938,-6.278 -2.008,-11.608 -1.07,-5.329 -1.896,-9.13 -2.475,-11.404 L -59.067,0 l -23.547,0 -24.952,97.801 20.403,0 12.509,-53.383 c 2.184,-9.855 3.767,-18.397 4.749,-25.621 0.267,2.543 0.881,6.478 1.84,11.808 0.959,5.329 1.861,9.465 2.709,12.409 l 14.249,54.787 19.6,0 14.248,-54.787 c 0.624,-2.453 1.405,-6.2 2.342,-11.239 0.936,-5.041 1.648,-9.365 2.141,-12.978 0.444,3.478 1.158,7.816 2.14,13.012 0.98,5.195 1.873,9.398 2.676,12.609 l 12.441,53.383 20.404,0 L 0,0 Z" /></g><g
         transform="translate(2076.3896,1942.9531)"
         id="g4428"><path
           inkscape:connector-curvature="0"
           id="path4430"
           style="fill:#ffffff;fill-opacity:1;fill-rule:nonzero;stroke:none"
           d="m 0,0 c -6.555,21.094 -10.246,33.023 -11.07,35.789 -0.826,2.765 -1.417,4.95 -1.774,6.556 C -14.314,36.636 -18.529,22.521 -25.486,0 L 0,0 Z m 12.041,-40.672 -7.09,23.279 -35.655,0 -7.091,-23.279 -22.343,0 34.518,98.201 25.352,0 34.653,-98.201 -22.344,0 z" /></g><g
         transform="translate(2187.6592,1956.667)"
         id="g4432"><path
           inkscape:connector-curvature="0"
           id="path4434"
           style="fill:#ffffff;fill-opacity:1;fill-rule:nonzero;stroke:none"
           d="m 0,0 6.689,0 c 6.556,0 11.394,1.093 14.516,3.278 3.121,2.184 4.684,5.619 4.684,10.301 0,4.639 -1.596,7.938 -4.784,9.9 -3.189,1.963 -8.127,2.944 -14.817,2.944 L 0,26.423 0,0 Z m 0,-16.858 0,-37.528 -20.737,0 0,97.801 28.497,0 c 13.289,0 23.122,-2.42 29.5,-7.258 6.377,-4.84 9.566,-12.187 9.566,-22.043 0,-5.752 -1.584,-10.869 -4.75,-15.351 -3.167,-4.483 -7.648,-7.994 -13.445,-10.537 14.717,-21.987 24.305,-36.19 28.765,-42.612 l -23.012,0 -23.347,37.528 -11.037,0 z" /></g><g
         transform="translate(2357.5293,1902.2813)"
         id="g4436"><path
           inkscape:connector-curvature="0"
           id="path4438"
           style="fill:#ffffff;fill-opacity:1;fill-rule:nonzero;stroke:none"
           d="m 0,0 -56.325,0 0,97.801 56.325,0 0,-16.992 -35.588,0 0,-21.473 33.112,0 0,-16.992 -33.112,0 0,-25.219 L 0,17.125 0,0 Z" /></g><g
         transform="translate(335.2861,1731.4414)"
         id="g4440"><path
           inkscape:connector-curvature="0"
           id="path4442"
           style="fill:#ffffff;fill-opacity:1;fill-rule:nonzero;stroke:none"
           d="m 0,0 c 0,-8.83 -3.178,-15.787 -9.532,-20.871 -6.356,-5.084 -15.197,-7.627 -26.525,-7.627 -10.435,0 -19.667,1.963 -27.694,5.887 l 0,19.265 c 6.6,-2.943 12.186,-5.017 16.758,-6.22 4.57,-1.205 8.751,-1.807 12.542,-1.807 4.549,0 8.038,0.869 10.47,2.609 2.429,1.739 3.645,4.325 3.645,7.76 0,1.916 -0.535,3.623 -1.605,5.117 -1.071,1.494 -2.643,2.932 -4.716,4.315 -2.074,1.383 -6.3,3.59 -12.677,6.623 -5.977,2.808 -10.459,5.508 -13.446,8.094 -2.989,2.585 -5.374,5.595 -7.158,9.031 -1.784,3.433 -2.675,7.447 -2.675,12.041 0,8.65 2.931,15.453 8.797,20.402 5.863,4.951 13.968,7.426 24.315,7.426 5.084,0 9.935,-0.602 14.55,-1.807 4.616,-1.203 9.442,-2.898 14.482,-5.084 L -7.158,49.033 c -5.218,2.141 -9.532,3.635 -12.944,4.483 -3.412,0.845 -6.768,1.269 -10.068,1.269 -3.925,0 -6.934,-0.914 -9.03,-2.742 -2.097,-1.828 -3.145,-4.215 -3.145,-7.158 0,-1.828 0.424,-3.422 1.272,-4.781 0.846,-1.362 2.195,-2.676 4.047,-3.948 1.849,-1.271 6.231,-3.556 13.144,-6.857 C -14.74,24.928 -8.474,20.547 -5.084,16.154 -1.695,11.762 0,6.377 0,0" /></g><g
         transform="translate(414.2451,1753.3145)"
         id="g4444"><path
           inkscape:connector-curvature="0"
           id="path4446"
           style="fill:#ffffff;fill-opacity:1;fill-rule:nonzero;stroke:none"
           d="m 0,0 c 0,-10.926 2.074,-19.154 6.222,-24.684 4.147,-5.529 10.345,-8.295 18.596,-8.295 16.545,0 24.818,10.993 24.818,32.979 0,22.031 -8.228,33.047 -24.684,33.047 -8.251,0 -14.473,-2.776 -18.664,-8.328 C 2.096,19.166 0,10.926 0,0 m 71.377,0 c 0,-16.187 -4.014,-28.631 -12.041,-37.326 -8.027,-8.697 -19.533,-13.045 -34.518,-13.045 -14.984,0 -26.49,4.348 -34.517,13.045 -8.028,8.695 -12.041,21.181 -12.041,37.461 0,16.277 4.023,28.709 12.074,37.293 8.049,8.586 19.589,12.877 34.618,12.877 15.028,0 26.524,-4.326 34.485,-12.977 C 67.396,28.676 71.377,16.232 71.377,0" /></g><g
         transform="translate(570.1338,1704.2813)"
         id="g4448"><path
           inkscape:connector-curvature="0"
           id="path4450"
           style="fill:#ffffff;fill-opacity:1;fill-rule:nonzero;stroke:none"
           d="m 0,0 -20.402,0 0,97.801 56.057,0 0,-16.992 -35.655,0 0,-25.219 33.18,0 0,-16.924 L 0,38.666 0,0 Z" /></g><g
         transform="translate(706.4893,1704.2813)"
         id="g4452"><path
           inkscape:connector-curvature="0"
           id="path4454"
           style="fill:#ffffff;fill-opacity:1;fill-rule:nonzero;stroke:none"
           d="m 0,0 -20.737,0 0,80.541 -26.558,0 0,17.26 73.852,0 0,-17.26 L 0,80.541 0,0 Z" /></g><g
         transform="translate(887.1953,1704.2813)"
         id="g4456"><path
           inkscape:connector-curvature="0"
           id="path4458"
           style="fill:#ffffff;fill-opacity:1;fill-rule:nonzero;stroke:none"
           d="m 0,0 -23.614,0 -13.245,51.375 c -0.492,1.828 -1.328,5.607 -2.508,11.34 -1.183,5.728 -1.863,9.576 -2.041,11.539 -0.268,-2.408 -0.937,-6.277 -2.007,-11.608 -1.07,-5.328 -1.896,-9.13 -2.475,-11.404 L -59.068,0 l -23.547,0 -24.951,97.801 20.402,0 12.51,-53.383 c 2.184,-9.855 3.767,-18.397 4.749,-25.621 0.267,2.543 0.88,6.478 1.84,11.808 0.958,5.329 1.861,9.465 2.709,12.409 l 14.249,54.787 19.599,0 14.249,-54.787 c 0.624,-2.453 1.405,-6.2 2.341,-11.239 0.937,-5.041 1.649,-9.365 2.141,-12.978 0.445,3.478 1.159,7.816 2.14,13.012 0.981,5.195 1.873,9.398 2.676,12.609 l 12.442,53.383 20.404,0 L 0,0 Z" /></g><g
         transform="translate(1016.0586,1744.9531)"
         id="g4460"><path
           inkscape:connector-curvature="0"
           id="path4462"
           style="fill:#ffffff;fill-opacity:1;fill-rule:nonzero;stroke:none"
           d="m 0,0 c -6.556,21.094 -10.247,33.023 -11.071,35.789 -0.826,2.764 -1.416,4.949 -1.773,6.555 C -14.315,36.635 -18.53,22.521 -25.487,0 L 0,0 Z m 12.041,-40.672 -7.091,23.279 -35.655,0 -7.091,-23.279 -22.343,0 34.518,98.201 25.353,0 34.652,-98.201 -22.343,0 z" /></g><g
         transform="translate(1127.3281,1758.666)"
         id="g4464"><path
           inkscape:connector-curvature="0"
           id="path4466"
           style="fill:#ffffff;fill-opacity:1;fill-rule:nonzero;stroke:none"
           d="m 0,0 6.689,0 c 6.556,0 11.394,1.094 14.516,3.279 3.121,2.184 4.683,5.619 4.683,10.301 0,4.639 -1.595,7.938 -4.783,9.9 -3.189,1.963 -8.127,2.944 -14.817,2.944 L 0,26.424 0,0 Z m 0,-16.857 0,-37.528 -20.737,0 0,97.801 28.497,0 c 13.289,0 23.122,-2.42 29.5,-7.258 6.377,-4.84 9.566,-12.187 9.566,-22.043 0,-5.752 -1.584,-10.869 -4.75,-15.351 -3.167,-4.483 -7.648,-7.994 -13.445,-10.537 14.717,-21.987 24.305,-36.19 28.765,-42.612 l -23.012,0 -23.347,37.528 -11.037,0 z" /></g><g
         transform="translate(1297.1973,1704.2813)"
         id="g4468"><path
           inkscape:connector-curvature="0"
           id="path4470"
           style="fill:#ffffff;fill-opacity:1;fill-rule:nonzero;stroke:none"
           d="m 0,0 -56.325,0 0,97.801 56.325,0 0,-16.992 -35.588,0 0,-21.473 33.113,0 0,-16.992 -33.113,0 0,-25.219 L 0,17.125 0,0 Z" /></g><g
         transform="translate(1417.2061,1752.6465)"
         id="g4472"><path
           inkscape:connector-curvature="0"
           id="path4474"
           style="fill:#ffffff;fill-opacity:1;fill-rule:nonzero;stroke:none"
           d="m 0,0 c 0,3.746 1.003,6.578 3.011,8.496 2.006,1.916 4.926,2.875 8.762,2.875 3.702,0 6.566,-0.98 8.596,-2.943 2.028,-1.963 3.044,-4.772 3.044,-8.428 0,-3.613 -1.037,-6.412 -3.11,-8.395 -2.074,-1.986 -4.917,-2.978 -8.53,-2.978 -3.746,0 -6.645,0.98 -8.696,2.943 C 1.025,-6.467 0,-3.658 0,0" /></g><g
         transform="translate(1651.6045,1704.2813)"
         id="g4476"><path
           inkscape:connector-curvature="0"
           id="path4478"
           style="fill:#ffffff;fill-opacity:1;fill-rule:nonzero;stroke:none"
           d="m 0,0 -26.355,0 -42.545,73.986 -0.603,0 c 0.847,-13.068 1.271,-22.388 1.271,-27.963 l 0,-46.023 -18.53,0 0,97.801 26.157,0 42.477,-73.25 0.468,0 c -0.668,12.709 -1.003,21.695 -1.003,26.959 l 0,46.291 L 0,97.801 0,0 Z" /></g><g
         transform="translate(1776.3867,1704.2813)"
         id="g4480"><path
           inkscape:connector-curvature="0"
           id="path4482"
           style="fill:#ffffff;fill-opacity:1;fill-rule:nonzero;stroke:none"
           d="m 0,0 -56.325,0 0,97.801 56.325,0 0,-16.992 -35.588,0 0,-21.473 33.112,0 0,-16.992 -33.112,0 0,-25.219 L 0,17.125 0,0 Z" /></g><g
         transform="translate(1878.3584,1704.2813)"
         id="g4484"><path
           inkscape:connector-curvature="0"
           id="path4486"
           style="fill:#ffffff;fill-opacity:1;fill-rule:nonzero;stroke:none"
           d="m 0,0 -20.737,0 0,80.541 -26.558,0 0,17.26 73.852,0 0,-17.26 L 0,80.541 0,0 Z" /></g><g
         transform="translate(2059.0645,1704.2813)"
         id="g4488"><path
           inkscape:connector-curvature="0"
           id="path4490"
           style="fill:#ffffff;fill-opacity:1;fill-rule:nonzero;stroke:none"
           d="m 0,0 -23.614,0 -13.244,51.375 c -0.493,1.828 -1.329,5.607 -2.509,11.34 -1.183,5.728 -1.863,9.576 -2.04,11.539 -0.268,-2.408 -0.938,-6.277 -2.008,-11.608 -1.07,-5.328 -1.896,-9.13 -2.475,-11.404 L -59.067,0 l -23.547,0 -24.952,97.801 20.403,0 12.509,-53.383 c 2.184,-9.855 3.767,-18.397 4.749,-25.621 0.267,2.543 0.881,6.478 1.84,11.808 0.959,5.329 1.861,9.465 2.709,12.409 l 14.249,54.787 19.6,0 14.248,-54.787 c 0.624,-2.453 1.405,-6.2 2.342,-11.239 0.936,-5.041 1.648,-9.365 2.141,-12.978 0.444,3.478 1.158,7.816 2.14,13.012 0.98,5.195 1.873,9.398 2.676,12.609 l 12.441,53.383 20.404,0 L 0,0 Z" /></g><g
         transform="translate(2157.4912,1753.3145)"
         id="g4492"><path
           inkscape:connector-curvature="0"
           id="path4494"
           style="fill:#ffffff;fill-opacity:1;fill-rule:nonzero;stroke:none"
           d="m 0,0 c 0,-10.926 2.074,-19.154 6.221,-24.684 4.148,-5.529 10.345,-8.295 18.597,-8.295 16.544,0 24.818,10.993 24.818,32.979 0,22.031 -8.228,33.047 -24.685,33.047 C 16.7,33.047 10.479,30.271 6.288,24.719 2.096,19.166 0,10.926 0,0 m 71.377,0 c 0,-16.187 -4.014,-28.631 -12.041,-37.326 -8.027,-8.697 -19.533,-13.045 -34.518,-13.045 -14.984,0 -26.49,4.348 -34.517,13.045 -8.028,8.695 -12.041,21.181 -12.041,37.461 0,16.277 4.023,28.709 12.074,37.293 8.049,8.586 19.588,12.877 34.617,12.877 15.028,0 26.525,-4.326 34.485,-12.977 C 67.396,28.676 71.377,16.232 71.377,0" /></g><g
         transform="translate(2313.7139,1758.666)"
         id="g4496"><path
           inkscape:connector-curvature="0"
           id="path4498"
           style="fill:#ffffff;fill-opacity:1;fill-rule:nonzero;stroke:none"
           d="m 0,0 6.689,0 c 6.556,0 11.394,1.094 14.516,3.279 3.121,2.184 4.684,5.619 4.684,10.301 0,4.639 -1.596,7.938 -4.784,9.9 -3.189,1.963 -8.127,2.944 -14.817,2.944 L 0,26.424 0,0 Z m 0,-16.857 0,-37.528 -20.737,0 0,97.801 28.497,0 c 13.289,0 23.122,-2.42 29.5,-7.258 6.377,-4.84 9.566,-12.187 9.566,-22.043 0,-5.752 -1.584,-10.869 -4.75,-15.351 -3.167,-4.483 -7.648,-7.994 -13.445,-10.537 14.717,-21.987 24.305,-36.19 28.765,-42.612 l -23.012,0 -23.347,37.528 -11.037,0 z" /></g><g
         transform="translate(2505.9258,1704.2813)"
         id="g4500"><path
           inkscape:connector-curvature="0"
           id="path4502"
           style="fill:#ffffff;fill-opacity:1;fill-rule:nonzero;stroke:none"
           d="m 0,0 -23.547,0 -25.62,41.207 -8.764,-6.287 0,-34.92 -20.737,0 0,97.801 20.737,0 0,-44.754 8.161,11.506 26.491,33.248 23.011,0 L -34.384,54.52 0,0 Z" /></g><g
         transform="translate(2619.8037,1731.4414)"
         id="g4504"><path
           inkscape:connector-curvature="0"
           id="path4506"
           style="fill:#ffffff;fill-opacity:1;fill-rule:nonzero;stroke:none"
           d="m 0,0 c 0,-8.83 -3.177,-15.787 -9.532,-20.871 -6.355,-5.084 -15.197,-7.627 -26.524,-7.627 -10.435,0 -19.667,1.963 -27.694,5.887 l 0,19.265 c 6.6,-2.943 12.186,-5.017 16.757,-6.22 4.571,-1.205 8.752,-1.807 12.543,-1.807 4.549,0 8.038,0.869 10.469,2.609 2.43,1.739 3.645,4.325 3.645,7.76 0,1.916 -0.535,3.623 -1.605,5.117 -1.071,1.494 -2.642,2.932 -4.716,4.315 -2.073,1.383 -6.3,3.59 -12.677,6.623 -5.977,2.808 -10.458,5.508 -13.445,8.094 -2.989,2.585 -5.375,5.595 -7.159,9.031 -1.784,3.433 -2.675,7.447 -2.675,12.041 0,8.65 2.932,15.453 8.797,20.402 5.864,4.951 13.969,7.426 24.316,7.426 5.084,0 9.934,-0.602 14.55,-1.807 4.615,-1.203 9.442,-2.898 14.482,-5.084 L -7.157,49.033 c -5.218,2.141 -9.532,3.635 -12.945,4.483 -3.411,0.845 -6.767,1.269 -10.067,1.269 -3.925,0 -6.935,-0.914 -9.03,-2.742 -2.098,-1.828 -3.145,-4.215 -3.145,-7.158 0,-1.828 0.423,-3.422 1.272,-4.781 0.845,-1.362 2.195,-2.676 4.047,-3.948 1.849,-1.271 6.231,-3.556 13.144,-6.857 9.142,-4.371 15.407,-8.752 18.797,-13.145 C -1.695,11.762 0,6.377 0,0" /></g><g
         transform="translate(999.666,1561.2012)"
         id="g4508"><path
           inkscape:connector-curvature="0"
           id="path4510"
           style="fill:#ffffff;fill-opacity:1;fill-rule:nonzero;stroke:none"
           d="m 0,0 38.799,0 0,-50.705 c -6.288,-2.053 -12.208,-3.49 -17.76,-4.315 -5.553,-0.824 -11.228,-1.238 -17.025,-1.238 -14.762,0 -26.034,4.338 -33.815,13.012 -7.783,8.674 -11.674,21.127 -11.674,37.359 0,15.787 4.516,28.096 13.547,36.926 9.031,8.83 21.55,13.246 37.561,13.246 10.034,0 19.711,-2.008 29.032,-6.021 l -6.89,-16.59 c -7.135,3.568 -14.561,5.351 -22.276,5.351 -8.964,0 -16.145,-3.009 -21.54,-9.029 -5.396,-6.021 -8.094,-14.115 -8.094,-24.283 0,-10.615 2.174,-18.721 6.523,-24.317 4.347,-5.597 10.669,-8.394 18.964,-8.394 4.325,0 8.718,0.445 13.178,1.338 l 0,20.402 -18.53,0 L 0,0 Z" /></g><g
         transform="translate(1126.3213,1560.666)"
         id="g4512"><path
           inkscape:connector-curvature="0"
           id="path4514"
           style="fill:#ffffff;fill-opacity:1;fill-rule:nonzero;stroke:none"
           d="m 0,0 6.689,0 c 6.556,0 11.395,1.094 14.517,3.279 3.121,2.184 4.683,5.619 4.683,10.301 0,4.639 -1.596,7.938 -4.784,9.9 -3.189,1.963 -8.127,2.944 -14.817,2.944 L 0,26.424 0,0 Z m 0,-16.857 0,-37.528 -20.737,0 0,97.801 28.497,0 c 13.289,0 23.123,-2.42 29.501,-7.258 6.377,-4.84 9.565,-12.187 9.565,-22.043 0,-5.752 -1.583,-10.869 -4.749,-15.351 C 38.91,-5.719 34.428,-9.23 28.631,-11.773 43.348,-33.76 52.936,-47.963 57.396,-54.385 l -23.012,0 -23.346,37.528 -11.038,0 z" /></g><g
         transform="translate(1287.6953,1546.9531)"
         id="g4516"><path
           inkscape:connector-curvature="0"
           id="path4518"
           style="fill:#ffffff;fill-opacity:1;fill-rule:nonzero;stroke:none"
           d="m 0,0 c -6.555,21.094 -10.246,33.023 -11.07,35.789 -0.826,2.764 -1.416,4.949 -1.774,6.555 C -14.314,36.635 -18.529,22.521 -25.486,0 L 0,0 Z m 12.041,-40.672 -7.09,23.279 -35.655,0 -7.091,-23.279 -22.343,0 34.518,98.201 25.352,0 34.653,-98.201 -22.344,0 z" /></g><g
         transform="translate(1398.9648,1558.0586)"
         id="g4520"><path
           inkscape:connector-curvature="0"
           id="path4522"
           style="fill:#ffffff;fill-opacity:1;fill-rule:nonzero;stroke:none"
           d="m 0,0 6.824,0 c 6.377,0 11.149,1.26 14.315,3.779 3.166,2.52 4.75,6.188 4.75,11.004 0,4.86 -1.328,8.451 -3.981,10.77 -2.654,2.318 -6.812,3.478 -12.475,3.478 L 0,29.031 0,0 Z m 46.826,15.52 c 0,-10.526 -3.289,-18.577 -9.866,-24.151 -6.579,-5.574 -15.933,-8.361 -28.063,-8.361 l -8.897,0 0,-34.785 -20.736,0 0,97.8 31.239,0 c 11.862,0 20.882,-2.554 27.059,-7.66 6.176,-5.107 9.264,-12.72 9.264,-22.843" /></g><g
         transform="translate(1588.2344,1506.2813)"
         id="g4524"><path
           inkscape:connector-curvature="0"
           id="path4526"
           style="fill:#ffffff;fill-opacity:1;fill-rule:nonzero;stroke:none"
           d="m 0,0 -20.671,0 0,42.211 -38.731,0 0,-42.211 -20.738,0 0,97.801 20.738,0 0,-38.332 38.731,0 0,38.332 L 0,97.801 0,0 Z" /></g><path
         inkscape:connector-curvature="0"
         id="path4528"
         style="fill:#ffffff;fill-opacity:1;fill-rule:nonzero;stroke:none"
         d="m 1656.758,1604.082 20.737,0 0,-97.801 -20.737,0 0,97.801 z" /><g
         transform="translate(1787.4951,1588.2266)"
         id="g4530"><path
           inkscape:connector-curvature="0"
           id="path4532"
           style="fill:#ffffff;fill-opacity:1;fill-rule:nonzero;stroke:none"
           d="m 0,0 c -7.806,0 -13.848,-2.932 -18.129,-8.795 -4.281,-5.865 -6.422,-14.039 -6.422,-24.518 0,-21.808 8.183,-32.71 24.551,-32.71 6.866,0 15.185,1.714 24.951,5.15 l 0,-17.393 c -8.027,-3.345 -16.991,-5.017 -26.891,-5.017 -14.227,0 -25.109,4.314 -32.645,12.945 -7.537,8.629 -11.306,21.014 -11.306,37.158 0,10.168 1.851,19.076 5.553,26.725 3.701,7.648 9.02,13.514 15.954,17.594 6.935,4.08 15.062,6.121 24.384,6.121 9.498,0 19.041,-2.297 28.631,-6.891 l -6.69,-16.857 c -3.658,1.74 -7.337,3.256 -11.038,4.549 C 7.201,-0.646 3.566,0 0,0" /></g><g
         transform="translate(1934.8193,1533.4414)"
         id="g4534"><path
           inkscape:connector-curvature="0"
           id="path4536"
           style="fill:#ffffff;fill-opacity:1;fill-rule:nonzero;stroke:none"
           d="m 0,0 c 0,-8.83 -3.177,-15.787 -9.532,-20.871 -6.355,-5.084 -15.197,-7.627 -26.524,-7.627 -10.435,0 -19.667,1.963 -27.694,5.887 l 0,19.265 c 6.6,-2.943 12.186,-5.017 16.757,-6.22 4.571,-1.205 8.752,-1.807 12.543,-1.807 4.549,0 8.038,0.869 10.469,2.609 2.43,1.739 3.645,4.325 3.645,7.76 0,1.916 -0.535,3.623 -1.605,5.117 -1.071,1.494 -2.642,2.932 -4.716,4.315 -2.073,1.383 -6.3,3.59 -12.677,6.623 -5.977,2.808 -10.458,5.508 -13.445,8.094 -2.989,2.585 -5.375,5.595 -7.159,9.031 -1.784,3.433 -2.675,7.447 -2.675,12.041 0,8.65 2.932,15.453 8.797,20.402 5.864,4.951 13.969,7.426 24.316,7.426 5.084,0 9.934,-0.602 14.55,-1.807 4.615,-1.203 9.442,-2.898 14.482,-5.084 L -7.157,49.033 c -5.218,2.141 -9.532,3.635 -12.945,4.483 -3.411,0.845 -6.767,1.269 -10.067,1.269 -3.925,0 -6.935,-0.914 -9.03,-2.742 -2.098,-1.828 -3.145,-4.215 -3.145,-7.158 0,-1.828 0.423,-3.422 1.272,-4.781 0.845,-1.362 2.195,-2.676 4.047,-3.948 1.849,-1.271 6.231,-3.556 13.144,-6.857 9.142,-4.371 15.407,-8.752 18.797,-13.145 C -1.695,11.762 0,6.377 0,0" /></g></g><g
       transform="matrix(0.87638995,0,0,0.87638995,-33.900001,799.32897)"
       id="g4952"><g
         transform="translate(491.5894,2378.0234)"
         id="g4286"><path
           inkscape:connector-curvature="0"
           id="path4288"
           style="fill:#f5751f;fill-opacity:1;fill-rule:nonzero;stroke:none"
           d="m 0,0 -35.014,0 -19.64,76.178 c -0.728,2.711 -1.968,8.314 -3.719,16.812 -1.753,8.496 -2.762,14.199 -3.025,17.11 -0.397,-3.571 -1.389,-9.307 -2.976,-17.209 -1.587,-7.903 -2.812,-13.539 -3.67,-16.912 L -87.585,0 -122.5,0 l -36.998,145.016 30.253,0 18.549,-79.155 c 3.239,-14.615 5.587,-27.277 7.043,-37.99 0.396,3.77 1.304,9.606 2.727,17.508 1.422,7.9 2.76,14.035 4.017,18.4 l 21.128,81.237 29.063,0 21.127,-81.237 c 0.925,-3.638 2.083,-9.193 3.472,-16.664 1.389,-7.474 2.445,-13.886 3.174,-19.244 0.66,5.158 1.718,11.59 3.174,19.293 1.454,7.703 2.777,13.938 3.967,18.697 l 18.45,79.155 30.253,0 L 0,0 Z" /></g><g
         transform="translate(717.6079,2378.0234)"
         id="g4290"><path
           inkscape:connector-curvature="0"
           id="path4292"
           style="fill:#f5751f;fill-opacity:1;fill-rule:nonzero;stroke:none"
           d="m 0,0 -83.518,0 0,145.016 83.518,0 0,-25.196 -52.769,0 0,-31.84 49.099,0 0,-25.193 -49.099,0 0,-37.394 L 0,25.393 0,0 Z" /></g><g
         transform="translate(1046.2524,2438.3301)"
         id="g4294"><path
           inkscape:connector-curvature="0"
           id="path4296"
           style="fill:#f5751f;fill-opacity:1;fill-rule:nonzero;stroke:none"
           d="m 0,0 c -9.721,31.277 -15.193,48.967 -16.416,53.066 -1.224,4.1 -2.1,7.342 -2.628,9.721 C -21.227,54.322 -27.476,33.393 -37.792,0 L 0,0 Z m 17.854,-60.307 -10.514,34.518 -52.868,0 -10.514,-34.518 -33.13,0 51.182,145.612 37.594,0 51.38,-145.612 -33.13,0 z" /></g><g
         transform="translate(1233.5869,2458.6641)"
         id="g4298"><path
           inkscape:connector-curvature="0"
           id="path4300"
           style="fill:#f5751f;fill-opacity:1;fill-rule:nonzero;stroke:none"
           d="m 0,0 9.919,0 c 9.721,0 16.894,1.619 21.524,4.861 4.628,3.239 6.944,8.332 6.944,15.276 0,6.877 -2.366,11.769 -7.093,14.679 -4.729,2.909 -12.051,4.364 -21.97,4.364 L 0,39.18 0,0 Z m 0,-24.996 0,-55.645 -30.749,0 0,145.016 42.255,0 c 19.705,0 34.286,-3.588 43.743,-10.762 9.455,-7.175 14.184,-18.07 14.184,-32.683 0,-8.532 -2.348,-16.119 -7.042,-22.764 C 57.694,-8.48 51.049,-13.688 42.453,-17.457 64.274,-50.059 78.491,-71.119 85.104,-80.641 l -34.121,0 -34.617,55.645 -16.366,0 z" /></g><g
         transform="translate(1507.8125,2378.0234)"
         id="g4302"><path
           inkscape:connector-curvature="0"
           id="path4304"
           style="fill:#f5751f;fill-opacity:1;fill-rule:nonzero;stroke:none"
           d="m 0,0 -83.519,0 0,145.016 83.519,0 0,-25.196 -52.77,0 0,-31.84 49.099,0 0,-25.193 -49.099,0 0,-37.394 52.77,0 L 0,0 Z" /></g><g
         transform="translate(1791.3242,2450.7285)"
         id="g4306"><path
           inkscape:connector-curvature="0"
           id="path4308"
           style="fill:#f5751f;fill-opacity:1;fill-rule:nonzero;stroke:none"
           d="m 0,0 c 0,-16.201 3.075,-28.402 9.225,-36.6 6.15,-8.201 15.34,-12.3 27.575,-12.3 24.532,0 36.8,16.3 36.8,48.9 0,32.666 -12.201,49 -36.602,49 C 24.764,49 15.539,44.885 9.324,36.652 3.107,28.418 0,16.201 0,0 m 105.836,0 c 0,-24.004 -5.951,-42.453 -17.854,-55.348 C 76.079,-68.242 59.019,-74.689 36.8,-74.689 c -22.219,0 -39.279,6.447 -51.182,19.341 -11.903,12.895 -17.854,31.411 -17.854,55.547 0,24.135 5.966,42.569 17.903,55.299 11.936,12.729 29.046,19.094 51.331,19.094 22.284,0 39.329,-6.414 51.133,-19.242 C 99.935,42.52 105.836,24.07 105.836,0" /></g><g
         transform="translate(2045.3154,2454.7969)"
         id="g4310"><path
           inkscape:connector-curvature="0"
           id="path4312"
           style="fill:#f5751f;fill-opacity:1;fill-rule:nonzero;stroke:none"
           d="m 0,0 10.117,0 c 9.456,0 16.531,1.867 21.227,5.604 4.694,3.734 7.043,9.175 7.043,16.316 0,7.207 -1.969,12.531 -5.903,15.971 -3.934,3.437 -10.101,5.156 -18.499,5.156 L 0,43.047 0,0 Z m 69.433,23.012 c 0,-15.608 -4.877,-27.543 -14.63,-35.809 -9.755,-8.265 -23.625,-12.398 -41.611,-12.398 l -13.192,0 0,-51.578 -30.749,0 0,145.015 46.322,0 c 17.589,0 30.962,-3.787 40.122,-11.357 9.159,-7.572 13.738,-18.864 13.738,-33.873" /></g><g
         transform="translate(2312.9941,2378.0234)"
         id="g4314"><path
           inkscape:connector-curvature="0"
           id="path4316"
           style="fill:#f5751f;fill-opacity:1;fill-rule:nonzero;stroke:none"
           d="m 0,0 -83.519,0 0,145.016 83.519,0 0,-25.196 -52.77,0 0,-31.84 49.099,0 0,-25.193 -49.099,0 0,-37.394 52.77,0 L 0,0 Z" /></g><g
         transform="translate(2559.2471,2378.0234)"
         id="g4318"><path
           inkscape:connector-curvature="0"
           id="path4320"
           style="fill:#f5751f;fill-opacity:1;fill-rule:nonzero;stroke:none"
           d="m 0,0 -39.081,0 -63.085,109.703 -0.893,0 c 1.256,-19.375 1.885,-33.195 1.885,-41.461 l 0,-68.242 -27.475,0 0,145.016 38.783,0 62.986,-108.614 0.694,0 c -0.992,18.846 -1.488,32.17 -1.488,39.973 l 0,68.641 27.674,0 L 0,0 Z" /></g></g></g></svg>